<svg viewBox="0 0 208.6 251.36" xmlns="http://www.w3.org/2000/svg" xmlns:xlink="http://www.w3.org/1999/xlink"><linearGradient id="a"><stop offset="0" stop-color="#e5a400"/><stop offset="1" stop-color="#e5a400" stop-opacity="0"/></linearGradient><linearGradient id="b"><stop offset="0" stop-color="#4c2d00"/><stop offset="1" stop-color="#4c2d00" stop-opacity="0"/></linearGradient><linearGradient id="c"><stop offset="0" stop-color="#a08600"/><stop offset="1" stop-color="#a08600" stop-opacity="0"/></linearGradient><linearGradient id="d"><stop offset="0" stop-color="#8e8600"/><stop offset="1" stop-color="#8e8600" stop-opacity="0"/></linearGradient><linearGradient id="e"><stop offset="0" stop-color="#8e9c00"/><stop offset="1" stop-color="#8e9c00" stop-opacity="0"/></linearGradient><linearGradient id="f"><stop offset="0" stop-color="#655200"/><stop offset="1" stop-color="#655200" stop-opacity="0"/></linearGradient><linearGradient id="g"><stop offset="0" stop-color="#684f00"/><stop offset="1" stop-color="#684f00" stop-opacity="0"/></linearGradient><linearGradient id="h"><stop offset="0"/><stop offset="1" stop-opacity="0"/></linearGradient><linearGradient id="i"><stop offset="0" stop-color="#f57200"/><stop offset="1" stop-color="#f57200" stop-opacity="0"/></linearGradient><linearGradient id="j"><stop offset="0" stop-color="#ce5aef"/><stop offset="1" stop-color="#ce5aef" stop-opacity="0"/></linearGradient><linearGradient id="k" gradientUnits="userSpaceOnUse" x1="382.717" x2="390.237" xlink:href="#j" y1="379.378" y2="400.378"/><linearGradient id="l" gradientUnits="userSpaceOnUse" x1="402.12" x2="417.45" xlink:href="#j" y1="363.878" y2="401.988"/><linearGradient id="m" gradientUnits="userSpaceOnUse" x1="428.42" x2="436.24" xlink:href="#j" y1="362.946" y2="393.436"/><linearGradient id="n" gradientUnits="userSpaceOnUse" x1="452.23" x2="460.05" xlink:href="#j" y1="359.14" y2="389.63"/><linearGradient id="o" gradientUnits="userSpaceOnUse" x1="472.23" x2="480.05" xlink:href="#j" y1="359.14" y2="389.63"/><radialGradient id="p" cx="348.97" cy="388.24" gradientTransform="matrix(1.1855 -.10734 .054885 1.1453 -86.385 -19.085)" gradientUnits="userSpaceOnUse" r="8.7508"><stop offset="0" stop-color="#20a000"/><stop offset="1" stop-color="#205100" stop-opacity="0"/></radialGradient><linearGradient id="q" gradientUnits="userSpaceOnUse" x1="354.83" x2="349.71" xlink:href="#h" y1="397.48" y2="386.21"/><linearGradient id="r" gradientUnits="userSpaceOnUse" x1="341.73" x2="357.21" y1="390.2" y2="390"><stop offset="0" stop-color="#f9e100"/><stop offset="1" stop-color="#f9e100" stop-opacity="0"/></linearGradient><linearGradient id="s" gradientUnits="userSpaceOnUse" x1="340.06" x2="339.01" y1="404.54" y2="398.34"><stop offset="0" stop-color="#202000"/><stop offset="1" stop-color="#202000" stop-opacity="0"/></linearGradient><radialGradient id="t" cx="338.16" cy="398.98" gradientTransform="matrix(.79639 .029087 -.04393 1.2028 86.379 -91.017)" gradientUnits="userSpaceOnUse" r="4.1782"><stop offset="0" stop-color="#dbae00"/><stop offset="1" stop-color="#dbae00" stop-opacity="0"/></radialGradient><radialGradient id="u" cx="305.47" cy="387.47" gradientTransform="matrix(-.50416 .38788 -.64459 -.71389 709.23 545.59)" gradientUnits="userSpaceOnUse" r="4.2998"><stop offset="0" stop-color="#db4b00"/><stop offset="1" stop-color="#db4b00" stop-opacity="0"/></radialGradient><linearGradient id="v" gradientUnits="userSpaceOnUse" x1="307.79" x2="303.3" y1="385.13" y2="389.13"><stop offset="0" stop-color="#680000"/><stop offset="1" stop-color="#680000" stop-opacity="0"/></linearGradient><linearGradient id="w" gradientTransform="matrix(.82698 .40274 -.40851 .75006 195.67 -68.761)" gradientUnits="userSpaceOnUse" x1="384.68" x2="438.41" xlink:href="#i" y1="284.35" y2="306.71"/><linearGradient id="x" gradientTransform="matrix(.82698 .40274 -.40851 .75006 195.67 -68.761)" gradientUnits="userSpaceOnUse" x1="384.68" x2="438.41" xlink:href="#h" y1="284.35" y2="306.71"/><linearGradient id="y" gradientTransform="matrix(.98004 .19878 -.19878 .98004 44.985 -66.904)" gradientUnits="userSpaceOnUse" x1="384.68" x2="438.41" xlink:href="#i" y1="284.35" y2="306.71"/><linearGradient id="z" gradientTransform="matrix(.98004 .19878 -.19878 .98004 44.985 -66.904)" gradientUnits="userSpaceOnUse" x1="384.68" x2="438.41" xlink:href="#h" y1="284.35" y2="306.71"/><linearGradient id="A" gradientTransform="matrix(.93548 .35337 -.35337 .93548 137 -117.35)" gradientUnits="userSpaceOnUse" x1="384.68" x2="438.41" xlink:href="#i" y1="284.35" y2="306.71"/><linearGradient id="B" gradientTransform="matrix(.93548 .35337 -.35337 .93548 137 -117.35)" gradientUnits="userSpaceOnUse" x1="384.68" x2="438.41" xlink:href="#h" y1="284.35" y2="306.71"/><linearGradient id="C" gradientTransform="matrix(.75169 .53015 -.52351 .67484 286.03 -95.017)" gradientUnits="userSpaceOnUse" x1="384.68" x2="438.41" xlink:href="#i" y1="284.35" y2="306.71"/><linearGradient id="D" gradientTransform="matrix(.75169 .53015 -.52351 .67484 286.03 -95.017)" gradientUnits="userSpaceOnUse" x1="384.68" x2="438.41" xlink:href="#h" y1="284.35" y2="306.71"/><linearGradient id="E" gradientUnits="userSpaceOnUse" x1="183.55" x2="144.55" y1="750.09" y2="734.87"><stop offset="0" stop-color="#625b00"/><stop offset="1" stop-color="#625b00" stop-opacity="0"/></linearGradient><linearGradient id="F" gradientUnits="userSpaceOnUse" x1="213" x2="211.8" y1="741.41" y2="776.93"><stop offset="0" stop-color="#6f8900"/><stop offset="1" stop-color="#6f8900" stop-opacity="0"/></linearGradient><linearGradient id="G" gradientUnits="userSpaceOnUse" x1="426.922" x2="413.942" y1="484.957" y2="501.077"><stop offset="0" stop-color="#fcf600"/><stop offset="1" stop-color="#fcf600" stop-opacity="0"/></linearGradient><linearGradient id="H" gradientUnits="userSpaceOnUse" x1="401.24" x2="455.73" y1="553.28" y2="541.55"><stop offset="0" stop-color="#fc7400"/><stop offset="1" stop-color="#fc7400" stop-opacity="0"/></linearGradient><linearGradient id="I" gradientUnits="userSpaceOnUse" x1="376.31" x2="393.9" y1="532.81" y2="494.69"><stop offset="0" stop-color="#fc9f00"/><stop offset="1" stop-color="#fc9f00" stop-opacity="0"/></linearGradient><linearGradient id="J" gradientUnits="userSpaceOnUse" x1="317.07" x2="293.65" xlink:href="#b" y1="683.78" y2="688.95"/><linearGradient id="K" gradientUnits="userSpaceOnUse" x1="326.16" x2="330.65" y1="474.49" y2="467.19"><stop offset="0" stop-color="#e5f800"/><stop offset="1" stop-color="#e5f800" stop-opacity="0"/></linearGradient><linearGradient id="L" gradientUnits="userSpaceOnUse" x1="323.96" x2="338.98" y1="532.39" y2="500.14"><stop offset="0" stop-color="#fc5500"/><stop offset="1" stop-color="#fc5500" stop-opacity="0"/></linearGradient><radialGradient id="M" cx="365" cy="602.2" gradientTransform="matrix(1.6028 -.28337 .075422 .42662 -265.41 435.29)" gradientUnits="userSpaceOnUse" r="54.321" xlink:href="#g"/><radialGradient id="N" cx="337" cy="565.42" gradientTransform="matrix(.52701 -.1913 .60607 1.6697 -177.13 -307.98)" gradientUnits="userSpaceOnUse" r="44.395" xlink:href="#f"/><linearGradient id="O" gradientUnits="userSpaceOnUse" x1="162.41" x2="116.53" xlink:href="#a" y1="548.68" y2="576.03"/><linearGradient id="P" gradientUnits="userSpaceOnUse" x1="169.46" x2="119.02" xlink:href="#a" y1="565.02" y2="575.68"/><linearGradient id="Q" gradientTransform="matrix(-.78167 0 0 .98384 449.32 48.027)" gradientUnits="userSpaceOnUse" x1="323.07" x2="299.65" xlink:href="#b" y1="685.78" y2="690.95"/><linearGradient id="R" gradientUnits="userSpaceOnUse" x1="103.39" x2="119.02" xlink:href="#a" y1="583.49" y2="575.68"/><radialGradient id="S" cx="365" cy="602.2" gradientTransform="matrix(-1.1468 -.38244 -.13127 .30018 655.8 580.42)" gradientUnits="userSpaceOnUse" r="54.321" xlink:href="#g"/><radialGradient id="T" cx="337" cy="565.42" gradientTransform="matrix(-.28391 -.08878 -.047065 1.6277 300.72 -282.96)" gradientUnits="userSpaceOnUse" r="44.395" xlink:href="#f"/><radialGradient id="U" cx="363.97" cy="604.13" gradientTransform="matrix(-.7691 .0000204 .00003342 1.7264 440.85 -401.92)" gradientUnits="userSpaceOnUse" r="18.99" xlink:href="#e"/><radialGradient id="V" cx="325.44" cy="580.34" gradientTransform="matrix(-.64413 -.4919 -.32176 .57728 586.93 444.7)" gradientUnits="userSpaceOnUse" r="25.018" xlink:href="#d"/><radialGradient id="W" cx="353.85" cy="587.63" gradientTransform="matrix(-.71442 -1.0076 -.34236 .3326 626.27 779.69)" gradientUnits="userSpaceOnUse" r="22.386" xlink:href="#c"/><radialGradient id="X" cx="365" cy="602.2" gradientTransform="matrix(1.0678 -1.2285 .32699 .2842 -231.43 860.23)" gradientUnits="userSpaceOnUse" r="54.321" xlink:href="#g"/><radialGradient id="Y" cx="363.97" cy="604.13" gradientTransform="matrix(1 .00002266 -.00004346 1.9177 .024056 -554.42)" gradientUnits="userSpaceOnUse" r="18.99" xlink:href="#e"/><radialGradient id="Z" cx="325.44" cy="580.34" gradientTransform="matrix(.83752 -.54641 .41836 .64125 -189.91 386.02)" gradientUnits="userSpaceOnUse" r="25.018" xlink:href="#d"/><radialGradient id="aa" cx="353.85" cy="587.63" gradientTransform="matrix(.92891 -1.1192 .44515 .36945 -241.07 758.14)" gradientUnits="userSpaceOnUse" r="22.386" xlink:href="#c"/><g transform="matrix(-.13843 .056728 .042217 .1424 116.09 -.86)"><g fill="none" stroke="#000" transform="matrix(.78968 -.29871 .14364 .67012 86.073 226.08)"><path d="m398.55 395.29c-3.17 2.45-5.89 3.06-9.07 6.24-3.24 3.24 6.24 6.16 6.8 6.23 3.05.41 4.7 2.07 6.24 2.84.86.43 3.11 5.8 2.32 3.99-.52-1.21-15.82 7.61 1.74 3.8" stroke-width="1.5"/><path d="m396.39 408.17c.18-.05.18-.05 0 0-2.24.63 2.5-2.4 4.74-3.06 2.1-.61 3.45-.14 4.11-.21" stroke-width=".46778"/><path d="m400.21 409.5c.11-.04.11-.04 0 0-1.48.56 1.32-2.34 2.79-2.92 1.38-.55 2.42-.02 2.88-.08" stroke-width=".3933"/><path d="m402.04 410.97c.11 0 .11 0 0 0-1.46 0 1.9-1.74 3.35-1.77 1.36-.02 2.09.85 2.5.96" stroke-width=".37893"/><path d="m404.36 413.02c.09 0 .09 0 0 0-1.12 0 1.47-.96 2.59-.98 1.05-.02 1.61.47 1.92.53" stroke-width=".24773"/></g><g fill="none" stroke="#000" transform="matrix(.91818 .39616 -.39616 .91818 171.58 -124.37)"><path d="m398.55 395.29c-3.17 2.45-5.89 3.06-9.07 6.24-3.24 3.24 6.24 6.16 6.8 6.23 3.05.41 4.7 2.07 6.24 2.84.86.43 3.11 5.8 2.32 3.99-.52-1.21-15.82 7.61 1.74 3.8" stroke-width="1.5"/><path d="m396.39 408.17c.18-.05.18-.05 0 0-2.24.63 2.5-2.4 4.74-3.06 2.1-.61 3.45-.14 4.11-.21" stroke-width=".46778"/><path d="m400.21 409.5c.11-.04.11-.04 0 0-1.48.56 1.32-2.34 2.79-2.92 1.38-.55 2.42-.02 2.88-.08" stroke-width=".3933"/><path d="m402.04 410.97c.11 0 .11 0 0 0-1.46 0 1.9-1.74 3.35-1.77 1.36-.02 2.09.85 2.5.96" stroke-width=".37893"/><path d="m404.36 413.02c.09 0 .09 0 0 0-1.12 0 1.47-.96 2.59-.98 1.05-.02 1.61.47 1.92.53" stroke-width=".24773"/></g><g fill-rule="evenodd" transform="matrix(.73426 -.55178 .5521 .73383 -110.57 308.81)"><path d="m371.54 365.14s10.49-61.72 51.7-71.9c27.19-6.72 32.2 6.6 32.2 6.6s-1.08 10.79-13.27 17.45c-15.9 8.69-37.35 18.6-48.38 44.01-4.77 11-21.5 5.91-22.25 3.84z" fill="url(#w)" stroke="url(#x)" stroke-width=".88589"/><path d="m358.12 371.05s-2.95-61.36 32.19-91.16c30.15-25.57 42.47-6.9 42.47-6.9s5.15 8.88-3.56 22.1c-10.7 16.23-32.14 33.28-43.44 62.39-5.03 12.95-26.26 15.67-27.66 13.57z" fill="url(#y)" stroke="url(#z)"/></g><path d="m353.39 376s37.58-42.95 81.42-42.05c43.83.89 42.94.89 42.94.89s8.95 11.63.89 17c-8.05 5.37-6.26 25.95-51.89 44.74-22.88 9.42-76.04 8.05-76.04 8.05z" fill="#c87137" fill-rule="evenodd" stroke="#000"/><path d="m355.47 374.8c-5.95-3.45-29.82-8.34-34.3 12.24-3.77 17.35 1.64 26.03 9.2 30.12 2.45 1.33 6.84 4.61 9.51 5.11 4.39.82 6.99-1.81 10.85-2.86 8.74-2.38 15.2-9.14 15.11-18.36-.17-17-4.46-22.83-10.37-26.25z" fill="#a05a2c" fill-rule="evenodd" stroke="#000"/><path d="m416.34 336.96c16.34 9.11 19.76 35.02 23.21 51.81l-9.11 4.67c-.83-11.53-2.35-31.72-10.72-39.65-3-2.16-12.48-12.44-16.2-12.93z" fill="url(#m)"/><path d="m391.23 346.89c16.35 9.11 22.77 34.42 26.21 51.21l-10.6 1.97c-.84-11.53-3.85-26.62-12.22-34.55-3.01-2.16-9.78-11.83-13.51-12.33z" fill="url(#l)"/><path d="m371.23 360.89c16.35 9.11 17.96 23.62 21.41 40.41l-12.7 2.27c-.84-11.53 3.05-16.12-5.32-24.05-3.01-2.16-10.08-10.03-13.81-10.53z" fill="url(#k)"/><path d="m441.94 334.96c8.29 4.62 8.48 12.05 11.86 19.27 3.05 6.5 2.75 13.76 4.45 22.04l-8.8 6.77c-.84-11.53-.25-14.92-3.22-27.05-3.01-6.96-13.98-20.84-17.7-21.33z" fill="url(#n)"/><path d="m461.94 334.96c8.29 4.62 6.38 6.05 9.76 13.27 3.05 6.5-2.65 5.96-.95 14.24l-7.3 9.17c-.84-11.53 3.95-8.32.98-20.45-3.01-6.96-12.18-16.04-15.9-16.53z" fill="url(#o)"/><g fill="none" stroke="#000" stroke-width=".7" transform="matrix(-1 0 0 1 677.76 -.36459)"><path d="m331.94 384.11c-2.38-5.06-1.16-6.26-1.16-6.26l-.29.3"/><path d="m329.38 383.5c-3.07-3.03-1.54-5.22-1.54-5.22"/><path d="m329.38 383.5c-3.07-3.03-1.54-5.22-1.54-5.22"/><path d="m327.38 383.5c-3.07-3.03-2.27-4.53-2.27-4.53"/><path d="m324.74 384.39c-3.07-3.04-2.28-4.54-2.28-4.54"/><path d="m323.52 384.97c-3.77-2.09-3.41-3.75-3.41-3.75"/><path d="m321.73 386.17c-3.77-2.09-3.41-3.75-3.41-3.75"/><path d="m320.64 388.24c-3.78-2.1-3.42-3.76-3.42-3.76"/></g><path d="m358.83 390.2a8.5508 7.5007 0 1 1 -17.1 0 8.5508 7.5007 0 1 1 17.1 0z" fill="#f9e100" fill-rule="evenodd" transform="matrix(.88914 .20418 -.16562 .72123 103.91 34.406)"/><g fill="url(#p)" fill-rule="evenodd" stroke="url(#q)" stroke-width=".4" transform="matrix(-1 0 0 1 676.98 -.000021)"><path d="m358.83 390.2a8.5508 7.5007 0 1 1 -17.1 0 8.5508 7.5007 0 1 1 17.1 0z" transform="matrix(.6077 -.18726 .15451 .51115 54.334 253.34)"/><path d="m358.83 390.2a8.5508 7.5007 0 1 1 -17.1 0 8.5508 7.5007 0 1 1 17.1 0z" transform="matrix(.6077 -.18726 .15451 .51115 54.334 253.34)"/></g><g fill="none" stroke="#000" stroke-width=".7"><path d="m331.94 384.11c-2.38-5.06-1.16-6.26-1.16-6.26l-.29.3"/><path d="m329.38 383.5c-3.07-3.03-1.54-5.22-1.54-5.22"/><path d="m329.38 383.5c-3.07-3.03-1.54-5.22-1.54-5.22"/><path d="m327.38 383.5c-3.07-3.03-2.27-4.53-2.27-4.53"/><path d="m324.74 384.39c-3.07-3.04-2.28-4.54-2.28-4.54"/><path d="m323.52 384.97c-3.77-2.09-3.41-3.75-3.41-3.75"/><path d="m321.73 386.17c-3.77-2.09-3.41-3.75-3.41-3.75"/><path d="m320.64 388.24c-3.78-2.1-3.42-3.76-3.42-3.76"/></g><g fill-rule="evenodd"><g><path d="m358.83 390.2a8.5508 7.5007 0 1 1 -17.1 0 8.5508 7.5007 0 1 1 17.1 0z" fill="#f9e100" transform="matrix(.87255 -.2663 .22185 .7269 -65.571 198.34)"/><g fill="url(#p)" stroke="url(#q)" stroke-width=".4"><path d="m358.83 390.2a8.5508 7.5007 0 1 1 -17.1 0 8.5508 7.5007 0 1 1 17.1 0z" transform="matrix(.6077 -.18726 .15451 .51115 54.334 253.34)"/><path d="m358.83 390.2a8.5508 7.5007 0 1 1 -17.1 0 8.5508 7.5007 0 1 1 17.1 0z" transform="matrix(.6077 -.18726 .15451 .51115 54.334 253.34)"/></g></g><path d="m358.83 390.2a8.5508 7.5007 0 1 1 -17.1 0 8.5508 7.5007 0 1 1 17.1 0z" fill="url(#r)" transform="matrix(-.017498 .82674 -.58974 -.017024 574.61 114.77)"/><path d="m342.84 400.29a3.8282 4.6789 0 1 1 -7.66 0 3.8282 4.6789 0 1 1 7.66 0z" fill="#db2700" stroke="url(#s)" stroke-opacity=".74252" stroke-width=".7" transform="translate(-.48612 -.97225)"/><path d="m342.84 400.29a3.8282 4.6789 0 1 1 -7.66 0 3.8282 4.6789 0 1 1 7.66 0z" fill="url(#t)" transform="translate(-.48612 -.97225)"/><path d="m330.56 407.15s14.95 9.24 19.57-1.7c4.62-10.93 2.31 1.22 2.31 1.22s-5.84 9.69-13.49 7.78c-7.29-1.83-9.24-5.96-9.24-5.96z" fill="#db4b00" stroke="#b60000"/><path d="m309.42 387.47a3.9498 3.6459 0 1 1 -7.9 0 3.9498 3.6459 0 1 1 7.9 0z" fill="url(#u)" stroke="url(#v)" stroke-width=".7" transform="matrix(.67272 0 0 .72878 141.96 105.33)"/><path d="m309.42 387.47a3.9498 3.6459 0 1 1 -7.9 0 3.9498 3.6459 0 1 1 7.9 0z" fill="url(#u)" stroke="url(#v)" stroke-width=".7" transform="matrix(-.67272 0 0 .72878 534.47 105.82)"/></g><path d="m331.25 375.8s-8.19-39.97-27.99-35.53c-15.95 3.58-6.44 11.23-2.26 12.56 4.39 1.39 14.51-1.79 8.94-6.58-4.7-4.04-9.59-1.22-8.64 1.39.76 2.1 4.38 1.63 4.38 1.63l-.21.27" fill="none" stroke="#000" stroke-width="2.2"/><path d="m390.05 361.48s27.26-48.1 68.95-56.03c36.14-6.88 29.47 9.62 29.47 9.62s1.1 8.79-11.03 15.57c-14.89 8.31-46.9 9.24-66.99 27.21-8.93 7.99-20 5.78-20.4 3.63z" fill="url(#C)" fill-rule="evenodd" stroke="url(#D)" stroke-width=".88589"/><path d="m375.86 365.15s22.69-64.5 51.72-80.92c40.09-22.67 37.69-3.89 37.69-3.89s3.65 9.59-7.06 21.24c-13.16 14.3-37.05 27.69-52.88 54.62-7.04 11.98-28.43 11.26-29.47 8.95z" fill="url(#A)" fill-rule="evenodd" stroke="url(#B)"/><path d="m292.65 303.73a7.0488 5.8335 0 1 1 -14.1 0 7.0488 5.8335 0 1 1 14.1 0z" fill="#f51300" fill-rule="evenodd" transform="matrix(.46809 -.29204 .1985 .31816 192.98 338.87)"/><g fill-rule="evenodd"><g fill="#f51300"><path d="m292.65 303.73a7.0488 5.8335 0 1 1 -14.1 0 7.0488 5.8335 0 1 1 14.1 0z" transform="matrix(.46809 -.29204 .1985 .31816 200.98 320.87)"/><path d="m292.65 303.73a7.0488 5.8335 0 1 1 -14.1 0 7.0488 5.8335 0 1 1 14.1 0z" transform="matrix(.46809 -.29204 .1985 .31816 210.98 304.87)"/><path d="m292.65 303.73a7.0488 5.8335 0 1 1 -14.1 0 7.0488 5.8335 0 1 1 14.1 0z" transform="matrix(.46809 -.29204 .1985 .31816 222.98 288.87)"/><path d="m292.65 303.73a7.0488 5.8335 0 1 1 -14.1 0 7.0488 5.8335 0 1 1 14.1 0z" transform="matrix(.46809 -.29204 .1985 .31816 236.98 276.87)"/><path d="m292.65 303.73a7.0488 5.8335 0 1 1 -14.1 0 7.0488 5.8335 0 1 1 14.1 0z" transform="matrix(.46809 -.29204 .1985 .31816 254.98 268.87)"/></g><path d="m292.65 303.73a7.0488 5.8335 0 1 1 -14.1 0 7.0488 5.8335 0 1 1 14.1 0z" fill="#f59f00" transform="matrix(.30544 -.18959 .12952 .20654 317.17 286.54)"/><path d="m292.65 303.73a7.0488 5.8335 0 1 1 -14.1 0 7.0488 5.8335 0 1 1 14.1 0z" fill="#f57200" transform="matrix(.30544 -.18959 .12952 .20654 305.17 292.54)"/><path d="m292.65 303.73a7.0488 5.8335 0 1 1 -14.1 0 7.0488 5.8335 0 1 1 14.1 0z" fill="#f57200" transform="matrix(.30544 -.18959 .12952 .20654 293.17 304.54)"/><path d="m292.65 303.73a7.0488 5.8335 0 1 1 -14.1 0 7.0488 5.8335 0 1 1 14.1 0z" fill="#f57200" transform="matrix(.30544 -.18959 .12952 .20654 283.17 318.54)"/><path d="m292.65 303.73a7.0488 5.8335 0 1 1 -14.1 0 7.0488 5.8335 0 1 1 14.1 0z" fill="#f57200" transform="matrix(.30544 -.18959 .12952 .20654 271.17 334.54)"/></g><g fill-rule="evenodd" transform="matrix(.92065 .17015 -.16692 .90319 95.637 -18.902)"><g fill="#f51300"><path d="m292.65 303.73a7.0488 5.8335 0 1 1 -14.1 0 7.0488 5.8335 0 1 1 14.1 0z" transform="matrix(.46809 -.29204 .1985 .31816 200.98 320.87)"/><path d="m292.65 303.73a7.0488 5.8335 0 1 1 -14.1 0 7.0488 5.8335 0 1 1 14.1 0z" transform="matrix(.46809 -.29204 .1985 .31816 210.98 304.87)"/><path d="m292.65 303.73a7.0488 5.8335 0 1 1 -14.1 0 7.0488 5.8335 0 1 1 14.1 0z" transform="matrix(.46809 -.29204 .1985 .31816 222.98 288.87)"/><path d="m292.65 303.73a7.0488 5.8335 0 1 1 -14.1 0 7.0488 5.8335 0 1 1 14.1 0z" transform="matrix(.46809 -.29204 .1985 .31816 236.98 276.87)"/><path d="m292.65 303.73a7.0488 5.8335 0 1 1 -14.1 0 7.0488 5.8335 0 1 1 14.1 0z" transform="matrix(.46809 -.29204 .1985 .31816 254.98 268.87)"/></g><path d="m292.65 303.73a7.0488 5.8335 0 1 1 -14.1 0 7.0488 5.8335 0 1 1 14.1 0z" fill="#f59f00" transform="matrix(.30544 -.18959 .12952 .20654 317.17 286.54)"/><path d="m292.65 303.73a7.0488 5.8335 0 1 1 -14.1 0 7.0488 5.8335 0 1 1 14.1 0z" fill="#f57200" transform="matrix(.30544 -.18959 .12952 .20654 305.17 292.54)"/><path d="m292.65 303.73a7.0488 5.8335 0 1 1 -14.1 0 7.0488 5.8335 0 1 1 14.1 0z" fill="#f57200" transform="matrix(.30544 -.18959 .12952 .20654 293.17 304.54)"/><path d="m292.65 303.73a7.0488 5.8335 0 1 1 -14.1 0 7.0488 5.8335 0 1 1 14.1 0z" fill="#f57200" transform="matrix(.30544 -.18959 .12952 .20654 283.17 318.54)"/><path d="m292.65 303.73a7.0488 5.8335 0 1 1 -14.1 0 7.0488 5.8335 0 1 1 14.1 0z" fill="#f57200" transform="matrix(.30544 -.18959 .12952 .20654 271.17 334.54)"/></g><g fill-rule="evenodd" transform="matrix(.60506 -.70528 .7278 .57593 -136.13 442.74)"><g fill="#f51300"><path d="m292.65 303.73a7.0488 5.8335 0 1 1 -14.1 0 7.0488 5.8335 0 1 1 14.1 0z" transform="matrix(.46809 -.29204 .1985 .31816 200.98 320.87)"/><path d="m292.65 303.73a7.0488 5.8335 0 1 1 -14.1 0 7.0488 5.8335 0 1 1 14.1 0z" transform="matrix(.46809 -.29204 .1985 .31816 210.98 304.87)"/><path d="m292.65 303.73a7.0488 5.8335 0 1 1 -14.1 0 7.0488 5.8335 0 1 1 14.1 0z" transform="matrix(.46809 -.29204 .1985 .31816 222.98 288.87)"/><path d="m292.65 303.73a7.0488 5.8335 0 1 1 -14.1 0 7.0488 5.8335 0 1 1 14.1 0z" transform="matrix(.46809 -.29204 .1985 .31816 236.98 276.87)"/><path d="m292.65 303.73a7.0488 5.8335 0 1 1 -14.1 0 7.0488 5.8335 0 1 1 14.1 0z" transform="matrix(.46809 -.29204 .1985 .31816 254.98 268.87)"/></g><path d="m292.65 303.73a7.0488 5.8335 0 1 1 -14.1 0 7.0488 5.8335 0 1 1 14.1 0z" fill="#f59f00" transform="matrix(.30544 -.18959 .12952 .20654 317.17 286.54)"/><path d="m292.65 303.73a7.0488 5.8335 0 1 1 -14.1 0 7.0488 5.8335 0 1 1 14.1 0z" fill="#f57200" transform="matrix(.30544 -.18959 .12952 .20654 305.17 292.54)"/><path d="m292.65 303.73a7.0488 5.8335 0 1 1 -14.1 0 7.0488 5.8335 0 1 1 14.1 0z" fill="#f57200" transform="matrix(.30544 -.18959 .12952 .20654 293.17 304.54)"/><path d="m292.65 303.73a7.0488 5.8335 0 1 1 -14.1 0 7.0488 5.8335 0 1 1 14.1 0z" fill="#f57200" transform="matrix(.30544 -.18959 .12952 .20654 283.17 318.54)"/><path d="m292.65 303.73a7.0488 5.8335 0 1 1 -14.1 0 7.0488 5.8335 0 1 1 14.1 0z" fill="#f57200" transform="matrix(.30544 -.18959 .12952 .20654 271.17 334.54)"/><path d="m292.65 303.73a7.0488 5.8335 0 1 1 -14.1 0 7.0488 5.8335 0 1 1 14.1 0z" fill="#f51300" transform="matrix(.4796943753 -.1841220941 .1296417578 .3211337054 227.1096166 305.1013223)"/><path d="m292.65 303.73a7.0488 5.8335 0 1 1 -14.1 0 7.0488 5.8335 0 1 1 14.1 0z" fill="#f51300" transform="matrix(.4796943753 -.1841220941 .1296417578 .3211337054 238.9868366 292.3517823)"/><path d="m292.65 303.73a7.0488 5.8335 0 1 1 -14.1 0 7.0488 5.8335 0 1 1 14.1 0z" fill="#f51300" transform="matrix(.4796943753 -.1841220941 .1296417578 .3211337054 252.7053566 279.9425423)"/><path d="m292.65 303.73a7.0488 5.8335 0 1 1 -14.1 0 7.0488 5.8335 0 1 1 14.1 0z" fill="#f51300" transform="matrix(.4796943753 -.1841220941 .1296417578 .3211337054 267.5974966 271.4863623)"/><path d="m292.65 303.73a7.0488 5.8335 0 1 1 -14.1 0 7.0488 5.8335 0 1 1 14.1 0z" fill="#f51300" transform="matrix(.4796943753 -.1841220941 .1296417578 .3211337054 285.5045566 267.3235423)"/><path d="m292.65 303.73a7.0488 5.8335 0 1 1 -14.1 0 7.0488 5.8335 0 1 1 14.1 0z" fill="#f59f00" transform="matrix(.3128496988 -.1192651761 .0847669312 .2085826906 339.8103037 293.8645381)"/><path d="m292.65 303.73a7.0488 5.8335 0 1 1 -14.1 0 7.0488 5.8335 0 1 1 14.1 0z" fill="#f57200" transform="matrix(.3128496988 -.1192651761 .0847669312 .2085826906 327.7609837 297.2418781)"/><path d="m292.65 303.73a7.0488 5.8335 0 1 1 -14.1 0 7.0488 5.8335 0 1 1 14.1 0z" fill="#f57200" transform="matrix(.3128496988 -.1192651761 .0847669312 .2085826906 314.7101437 306.0383581)"/><path d="m292.65 303.73a7.0488 5.8335 0 1 1 -14.1 0 7.0488 5.8335 0 1 1 14.1 0z" fill="#f57200" transform="matrix(.3128496988 -.1192651761 .0847669312 .2085826906 303.1667637 316.9815181)"/><path d="m292.65 303.73a7.0488 5.8335 0 1 1 -14.1 0 7.0488 5.8335 0 1 1 14.1 0z" fill="#f57200" transform="matrix(.3128496988 -.1192651761 .0847669312 .2085826906 289.4482437 329.3907581)"/></g><path d="m350.41 375.24s6.75-40.24 26.7-36.51c16.07 3.01 6.84 11 2.71 12.47-4.33 1.55-14.57-1.26-9.17-6.25 4.56-4.2 9.55-1.56 8.69 1.08-.69 2.13-4.32 1.78-4.32 1.78l.22.27" fill="none" stroke="#000" stroke-width="2.2"/><g fill="none" stroke="#000"><path d="m398.55 395.29c-3.17 2.45-5.89 3.06-9.07 6.24-3.24 3.24 6.24 6.16 6.8 6.23 3.05.41 4.7 2.07 6.24 2.84.86.43 3.11 5.8 2.32 3.99-.52-1.21-15.82 7.61 1.74 3.8" stroke-width="1.5"/><path d="m396.39 408.17c.18-.05.18-.05 0 0-2.24.63 2.5-2.4 4.74-3.06 2.1-.61 3.45-.14 4.11-.21" stroke-width=".46778"/><path d="m400.21 409.5c.11-.04.11-.04 0 0-1.48.56 1.32-2.34 2.79-2.92 1.38-.55 2.42-.02 2.88-.08" stroke-width=".3933"/><path d="m402.04 410.97c.11 0 .11 0 0 0-1.46 0 1.9-1.74 3.35-1.77 1.36-.02 2.09.85 2.5.96" stroke-width=".37893"/><path d="m404.36 413.02c.09 0 .09 0 0 0-1.12 0 1.47-.96 2.59-.98 1.05-.02 1.61.47 1.92.53" stroke-width=".24773"/></g><g fill="none" stroke="#000" transform="matrix(.92381 -.24624 .061894 .87051 30.876 146.22)"><path d="m398.55 395.29c-3.17 2.45-5.89 3.06-9.07 6.24-3.24 3.24 6.24 6.16 6.8 6.23 3.05.41 4.7 2.07 6.24 2.84.86.43 3.11 5.8 2.32 3.99-.52-1.21-15.82 7.61 1.74 3.8" stroke-width="1.5"/><path d="m396.39 408.17c.18-.05.18-.05 0 0-2.24.63 2.5-2.4 4.74-3.06 2.1-.61 3.45-.14 4.11-.21" stroke-width=".46778"/><path d="m400.21 409.5c.11-.04.11-.04 0 0-1.48.56 1.32-2.34 2.79-2.92 1.38-.55 2.42-.02 2.88-.08" stroke-width=".3933"/><path d="m402.04 410.97c.11 0 .11 0 0 0-1.46 0 1.9-1.74 3.35-1.77 1.36-.02 2.09.85 2.5.96" stroke-width=".37893"/><path d="m404.36 413.02c.09 0 .09 0 0 0-1.12 0 1.47-.96 2.59-.98 1.05-.02 1.61.47 1.92.53" stroke-width=".24773"/></g><g fill="none" stroke="#000" transform="matrix(.78968 -.29871 .14364 .67012 73.978 238.72)"><path d="m398.55 395.29c-3.17 2.45-5.89 3.06-9.07 6.24-3.24 3.24 6.24 6.16 6.8 6.23 3.05.41 4.7 2.07 6.24 2.84.86.43 3.11 5.8 2.32 3.99-.52-1.21-15.82 7.61 1.74 3.8" stroke-width="1.5"/><path d="m396.39 408.17c.18-.05.18-.05 0 0-2.24.63 2.5-2.4 4.74-3.06 2.1-.61 3.45-.14 4.11-.21" stroke-width=".46778"/><path d="m400.21 409.5c.11-.04.11-.04 0 0-1.48.56 1.32-2.34 2.79-2.92 1.38-.55 2.42-.02 2.88-.08" stroke-width=".3933"/><path d="m402.04 410.97c.11 0 .11 0 0 0-1.46 0 1.9-1.74 3.35-1.77 1.36-.02 2.09.85 2.5.96" stroke-width=".37893"/><path d="m404.36 413.02c.09 0 .09 0 0 0-1.12 0 1.47-.96 2.59-.98 1.05-.02 1.61.47 1.92.53" stroke-width=".24773"/></g></g><g transform="matrix(.56474 -.04725 .046886 .56912 -98.018 -202.692)"><g transform="matrix(-.62634 .49041 .48224 .76738 80.849 58.899)"><g fill-rule="evenodd"><path d="m82.917 755.66c7.674 1.53 21.653 6.82 32.963 3.99 13.78-3.44 6.38-4.71 2-7.99-11.09-8.32 27.04-5.53 39.96-11.99 1.33-.66 2.67-1.33 4-1.99 1.02-.51-5.38-3.76-7.99-8.99-1.54-3.07 22.87.99 27.97.99 8.89 0 18.78-1.99 28.97-1.99 10.36 0 24.68 13.69 30.97 19.98 13.91 13.91 2.57 10.15-11.99 5.99-18.24-5.21-49.57.66-66.93 5-9.14 2.28-18.88 5.44-25.98 8.99-7.99 3.99-17.72 4.99-26.97 4.99h-5.99c-9.498 0-12.655-4.66-18.985-10.99-2.199-2.2-.906-.53-1.998-5.99z" fill="#967f00" stroke="#000"/><path d="m82.917 755.66c7.674 1.53 21.653 6.82 32.963 3.99 13.78-3.44 6.38-4.71 2-7.99-11.09-8.32 27.04-5.53 39.96-11.99 1.33-.66 2.67-1.33 4-1.99 1.02-.51-5.38-3.76-7.99-8.99-1.54-3.07 22.87.99 27.97.99 8.89 0 18.78-1.99 28.97-1.99 10.36 0 24.68 13.69 30.97 19.98 13.91 13.91 2.57 10.15-11.99 5.99-18.24-5.21-49.57.66-66.93 5-9.14 2.28-18.88 5.44-25.98 8.99-7.99 3.99-17.72 4.99-26.97 4.99h-5.99c-9.498 0-12.655-4.66-18.985-10.99-2.199-2.2-.906-.53-1.998-5.99z" fill="url(#E)"/><path d="m264.74 767.65c-5.67-12.77-36.94-35.97-64.94-35.97-20.31 0-58.45 31.61-88.91 35.97-10 1.42-20.311-5-26.974-9.99-8.933-6.7 5.711 9.94 7.992 12.98 12.052 16.07 36.682 11.34 50.952 5 8.13-3.62 15.7-14.43 9.99-3-6.81 13.63-10.15 19.98-26.98 19.98-3.59 0 12.78 9.1 24.98 3 11.8-5.9 27.48-18.47 31.97-10.99 5.5 9.16-19.85 17.98 0 17.98 17.61 0 28.97-33.31 28.97-6.99 0 9.45 16.29-8.3 20.98-12.99 8.84-8.84 4.05-22.36 20.98-18.98 7.22 1.45 20.34 22.71 10.99 4z" fill="#96ae00" stroke="#000"/><path d="m264.74 767.65c-2.16-4.86-11.57-13.3-21.8-18.24-13.58-6.55-36.31-18.88-52.2-11.93-11.1 4.86-37.48 17.88-45.02 21.33-43.31 19.78-43.08 9.5-44.62 9.56-10.093.38-10.521-5.72-17.184-10.71-8.933-6.7 5.711 9.94 7.992 12.98 12.052 16.07 36.682 11.34 50.952 5 8.13-3.62 15.7-14.43 9.99-3-6.81 13.63-10.15 19.98-26.98 19.98-3.59 0 12.78 9.1 24.98 3 11.8-5.9 27.48-18.47 31.97-10.99 5.5 9.16-19.85 17.98 0 17.98 17.61 0 28.97-33.31 28.97-6.99 0 9.45 16.29-8.3 20.98-12.99 8.84-8.84 4.05-22.36 20.98-18.98 7.22 1.45 20.34 22.71 10.99 4z" fill="url(#F)" stroke="#6f7f00"/></g><path d="m226.77 757.71c-2.19 3.21-.17 8-.68 9.84-1.06 3.78-2.02 7.51-3.89 7.88-4.85.95-4.68-3.87-15.59 7.61m20.62-24c.59 3.41 3.15 4.89 4.78 13.51m-9.69 2.87c-.74 1.23-3.34 2.33-4.73 5.16-1.3 2.68-1.42 7.02-1.55 10.8-.09 2.52.04 2.62-2.54 3.26m23.2-47.85c-4 1.97-5.34 5.33-10.04 9.75-3.41 3.21-7.36 1.04-10.99 10.55" fill="none" stroke="#576e16" stroke-width=".6"/><path d="m194.14 773.33c.37.7-3.06 3.68-3.76 7.73-.47 2.78 1.79 6.97 1.67 7.64-.53 2.77-2.85 6.24-8.59 10.57m27-46.47c-1.7 3.49-6.86 4.11-8.2 5.47-2.75 2.8-5.52 5.49-4.91 7.29 1.59 4.68 5.68 2.14 1.14 17.31m10.59-29.82c-3.26 1.18-5.81-.3-14.1 2.56m2.32 9.84c-.7 1.25-.36 4.05-2.13 6.67-1.68 2.46-5.38 4.72-8.6 6.71-1.1.68-14.6-1.81-12.82 1.52m48.28-39.88c.16 2.7-5.25 1.43-8.25 3.58-1.93 1.38-1.66 5.79-2.25 8.25-1.09 4.56 2.75 6.91-3.7 14.78" fill="none" stroke="#576e16" stroke-width=".6"/><path d="m166.01 768.27c.23.7-3.7 3.86-5.15 8.02-.99 2.86.44 7.09.19 7.78-1.04 2.85-10.66 6.13-17.12 10.73m41.98-48.03c-2.33 3.62-7.51 4.42-9.08 5.85-3.23 2.94-6.46 5.78-6.2 7.6.67 4.75 5.17 2.03-2.16 17.69m16.03-30.84c-3.42 1.31-5.64-.14-14.33 3.04m.43 10c-.92 1.3-1.12 4.16-3.36 6.89-2.11 2.57-5.83-8.89-9.36-6.76-.52.32-5.13-.78-8 1.38-3.8 2.88-7.28 9.41-20.82 12.2m70.54-40.01c-.35 2.76-5.42 1.62-8.77 3.91-2.16 1.47-2.73 5.98-3.77 8.51-1.94 4.7 1.39 7-6.43 15.25" fill="none" stroke="#576e16" stroke-width=".6"/></g><g fill-rule="evenodd"><path d="m333.51 496.02c-6.03-7.11-.57-9.51 5.87-16.86 5.75-6.58 18.31-11.31 25.65-10.27 9.26 1.33 19.52 2.77 29.32 4.4 3.17.53 6.36.98 9.53 1.47 9.51 1.46 18.49 6.98 24.19 11.73 1.47 1.22 2.93 2.44 4.4 3.66 6.22 5.19 11.35 13.19 16.86 19.79 6.07 7.29 9.27 17.06 11.73 25.66 1.75 6.14-1.17 15.49-4.4 19.79-2.69 3.58-10.81 6.14-14.66 8.06-13.01 6.51-65.77-31.67-71.84-41.78-3.58-5.98-26.72-19.66-33.71-21.99-1.49-.49-1.96-2.44-2.94-3.66z" fill="#fc1000"/><path d="m444.12 585.53c15.35 1.47 12.79-4.76 25.72-11.56 4.49-2.37 9.51-9.05 5.92-8.85-12.54.72-27.97-1.8-22.12-8.78 4.27-5.08-1.73-20.47-4.54-26.73-3.01-6.74-16.21-2.73-19.81-6.9-13.48-15.64 11.88-9.7-16-16.91-5.26-1.37 4.6-13.63-5.2-2.39-5.96 6.84-5.45 19.96-9.4 26.87-3.99 6.97.89 8.4-7.91 12.79-3.02 1.51-1.74 10.77-1.68 13.37.17 8.05 2.66 28.3 9.06 30.84 6.89 2.74 21.93 10.71 24.73 5.83.78-1.36 20.6-6.15 21.23-7.58z" fill="#fce100" stroke="#000"/><path d="m333.51 496.02c-6.03-7.11-.57-9.51 5.87-16.86 5.75-6.58 18.31-11.31 25.65-10.27 9.26 1.33 19.52 2.77 29.32 4.4 3.17.53 6.36.98 9.53 1.47 9.51 1.46 18.49 6.98 24.19 11.73 1.47 1.22 2.93 2.44 4.4 3.66 6.22 5.19 11.35 13.19 16.86 19.79 6.07 7.29 9.27 17.06 11.73 25.66 1.75 6.14-1.17 15.49-4.4 19.79-2.69 3.58-10.81 6.14-14.66 8.06-13.01 6.51-65.77-31.67-71.84-41.78-3.58-5.98-26.72-19.66-33.71-21.99-1.49-.49-1.96-2.44-2.94-3.66z" fill="url(#G)"/><path d="m444.12 585.53c15.35 1.47 12.79-4.76 25.72-11.56 4.49-2.37 9.51-9.05 5.92-8.85-12.54.72-27.97-1.8-22.12-8.78 4.27-5.08-1.73-20.47-4.54-26.73-3.01-6.74-16.21-2.73-19.81-6.9-13.48-15.64 11.88-9.7-16-16.91-5.26-1.37 4.6-13.63-5.2-2.39-5.96 6.84-5.45 19.96-9.4 26.87-3.99 6.97.89 8.4-7.91 12.79-3.02 1.51-1.74 10.77-1.68 13.37.17 8.05 2.66 28.3 9.06 30.84 6.89 2.74 21.93 10.71 24.73 5.83.78-1.36 20.6-6.15 21.23-7.58z" fill="url(#H)"/><path d="m348.91 501.15c-5.46-14.43 1.23-13.6 4.4-27.86 1.1-4.95 6.23-11.55 6.97-8.04 2.6 12.3 9.09 26.51 14.28 19.04 3.79-5.45 20.22-3.7 26.99-2.65 7.3 1.14 6.89 14.94 11.86 17.31 18.64 8.9 6.24-14.01 20.53 10.99 2.7 4.73 11.93-8.01 3.66 4.4-5.03 7.55-17.83 10.5-23.46 16.13-5.67 5.67-8.33 1.35-10.26 10.99-.66 3.31-9.93 4.5-12.46 5.13-7.81 1.95-22.98-1.81-27.12-7.33-4.44-5.92-12.04-20.21-8.06-24.19 1.1-1.1-8.55-12.95-7.33-13.92z" fill="#fce100" stroke="#000"/><path d="m348.91 501.15c-5.46-14.43 1.23-13.6 4.4-27.86 1.1-4.95 6.23-11.55 6.97-8.04 2.6 12.3 9.09 26.51 14.28 19.04 3.79-5.45 20.22-3.7 26.99-2.65 7.3 1.14 6.89 14.94 11.86 17.31 18.64 8.9 6.24-14.01 20.53 10.99 2.7 4.73 11.93-8.01 3.66 4.4-5.03 7.55-17.83 10.5-23.46 16.13-5.67 5.67-8.33 1.35-10.26 10.99-.66 3.31-9.93 4.5-12.46 5.13-7.81 1.95-22.98-1.81-27.12-7.33-4.44-5.92-12.04-20.21-8.06-24.19 1.1-1.1-8.55-12.95-7.33-13.92z" fill="url(#I)"/><path d="m357.2 579.21c-26.45 20.31-42.18 36.53-46.44 62.25-1.54 9.25 1.08 33.87 1.76 46.47 6.55 31.95 7.07 63.89-20.1 99.02-1.42.84-2.84 1.68-4.26 2.53l7.48-9.86c17.48 3.52-17.69 23-8.92-.68 27.33-53.07 19.57-68.1 13.33-110.9-2.48-22.6 2.91-43.68 16.7-63.05 15.29-19.53 18.32-18.84 28.05-26.89z" fill="#7c7400"/><path d="m358.68 578.69c-26.46 20.31-42.18 36.53-46.45 62.25-1.53 9.25 1.09 33.87 1.77 46.47 6.55 31.95 7.07 63.89-20.1 99.01-1.42.85-2.84 1.69-4.26 2.53l7.48-9.85c17.48 3.52-17.69 22.99-8.92-.68 27.33-53.08 19.56-68.11 13.33-110.9-2.48-22.6 2.91-43.68 16.7-63.05 15.29-19.53 18.32-18.84 28.04-26.89z" fill="url(#J)"/><path d="m335.47 472.67a7.3893 4.8031 0 1 1 -14.77 0 7.3893 4.8031 0 1 1 14.77 0z" fill="url(#K)" transform="matrix(.83552 .39277 -.88448 .49344 531.53 118.55)"/><path d="m389.87 516.13c9.08-12.48 2.41-13.43 3.12-28.03.25-5.07-2.96-12.79-4.6-9.6-5.76 11.17-15.77 23.17-18.81 14.59-2.21-6.25-18.52-8.91-25.33-9.68-7.34-.83-10.59 12.58-16.01 13.55-20.33 3.66-2.32-15.15-22.7 5.18-3.85 3.85-9.4-10.88-4.7 3.28 2.86 8.6 14.42 14.83 18.36 21.75 3.98 6.97 7.68 3.5 7 13.31-.24 3.37 8.39 6.97 10.66 8.25 7.01 3.94 22.65 4.32 28.09.09 5.86-4.54 16.96-16.31 14.17-21.2-.77-1.36 11.67-10.23 10.75-11.49z" fill="#fce100" stroke="#000"/><path d="m389.87 516.13c9.08-12.48 2.41-13.43 3.12-28.03.25-5.07-2.96-12.79-4.6-9.6-5.76 11.17-15.77 23.17-18.81 14.59-2.21-6.25-18.52-8.91-25.33-9.68-7.34-.83-10.59 12.58-16.01 13.55-20.33 3.66-2.32-15.15-22.7 5.18-3.85 3.85-9.4-10.88-4.7 3.28 2.86 8.6 14.42 14.83 18.36 21.75 3.98 6.97 7.68 3.5 7 13.31-.24 3.37 8.39 6.97 10.66 8.25 7.01 3.94 22.65 4.32 28.09.09 5.86-4.54 16.96-16.31 14.17-21.2-.77-1.36 11.67-10.23 10.75-11.49z" fill="url(#L)"/><path d="m335.47 472.67a7.3893 4.8031 0 1 1 -14.77 0 7.3893 4.8031 0 1 1 14.77 0z" fill="url(#K)" transform="matrix(.92323 0 0 .82284 64.69 87.715)"/><path d="m335.47 472.67a7.3893 4.8031 0 1 1 -14.77 0 7.3893 4.8031 0 1 1 14.77 0z" fill="url(#K)" transform="matrix(.81009 -.14763 .11152 .61199 31.832 237.01)"/><path d="m344.51 577.7c-.73-.1-1.47-.2-2.2-.29-18.4-2.44-42.83-35.41-49.11-51.94-1.91-5.04 1.98-10 1.47-15.2-2.1-21.26 14.97 18.87 21.02 21.44 5.95 2.53 5.2-3.42 3.9-11.4-2.07-12.66-5.19-29.08.73-38.17.48-.73 11.71 23.42 21.26 32.86 3.71 3.67 6.81-11.24 10.99-13.2 7.16-3.37 9.15 41.1 12.46 29.5 2.51-8.77 9.76-9.76 11.69-11.54 3.35-3.09 3.23 15.64 3.71 22.36.23 3.24-.98 6.23-1.47 9.34-1.27 8.09-10.57 9.38-12.46 16.68-1.83 7.06.77 9.99-9.53 11.2-5.99.71-6.29 2.87-12.46-1.64z" fill="#8e9f00" stroke="#000"/><path d="m359.55 588.56c.33-8.24 6.54 1.11 6.87 1.67 8.49 13.93 44.52 18.23 62.42 13.56 5.45-1.43 8.89-7.66 14.03-10.35 21.02-11.01-23.05-1.2-27.53-4.71-4.41-3.46 4.4-3.6 12.46-7.31 12.79-5.87 26.65-15.91 33.35-26.32.53-.83-26.3 4.27-38.52 1.95-4.75-.9 8.45-12.43 8.93-17.12.82-8-42.34 17.02-32.36 7.29 7.54-7.35 6.05-14.01 7.11-16.7 1.82-4.65-16.03 6.69-22.62 10.33-3.16 1.75-5.62 4.55-8.42 6.83-7.31 5.92-5.42 14.47-11.76 20.43-6.14 5.76-8.34 10.48-8.98 11.02-4.27 3.61-1.37 6.98 5.02 9.43z" fill="#8e9f00" stroke="#000"/><path d="m359.55 588.56c.33-8.24 6.54 1.11 6.87 1.67 8.49 13.93 44.52 18.23 62.42 13.56 5.45-1.43 8.89-7.66 14.03-10.35 21.02-11.01-23.05-1.2-27.53-4.71-4.41-3.46 4.4-3.6 12.46-7.31 12.79-5.87 26.65-15.91 33.35-26.32.53-.83-26.3 4.27-38.52 1.95-4.75-.9 8.45-12.43 8.93-17.12.82-8-42.34 17.02-32.36 7.29 7.54-7.35 6.05-14.01 7.11-16.7 1.82-4.65-16.03 6.69-22.62 10.33-3.16 1.75-5.62 4.55-8.42 6.83-7.31 5.92-5.42 14.47-11.76 20.43-6.14 5.76-8.34 10.48-8.98 11.02-4.27 3.61-1.37 6.98 5.02 9.43z" fill="url(#M)"/><path d="m344.51 577.7c-.73-.1-1.47-.2-2.2-.29-18.4-2.44-42.83-35.41-49.11-51.94-1.91-5.04 1.98-10 1.47-15.2-2.1-21.26 14.97 18.87 21.02 21.44 5.95 2.53 5.2-3.42 3.9-11.4-2.07-12.66-5.19-29.08.73-38.17.48-.73 11.71 23.42 21.26 32.86 3.71 3.67 6.81-11.24 10.99-13.2 7.16-3.37 9.15 41.1 12.46 29.5 2.51-8.77 9.76-9.76 11.69-11.54 3.35-3.09 3.23 15.64 3.71 22.36.23 3.24-.98 6.23-1.47 9.34-1.27 8.09-10.57 9.38-12.46 16.68-1.83 7.06.77 9.99-9.53 11.2-5.99.71-6.29 2.87-12.46-1.64z" fill="url(#N)"/></g><g transform="matrix(.83488 0 0 .89279 117.51 59.771)"><g fill-rule="evenodd"><path d="m168.74 583.08c1.13-22.55-14.43-44.16-34.1-54-8.87-4.44-19.09-5.1-28.07-9.59-3.76-1.88-6.41-5.7-9.587-7.82-2.952-1.97-5.998-5.45-8.171-8.17-3.164-3.95-4.618 1.33-4.618 3.91v2.84c0 5.75-2.18 9.75-.71 15.63 1.441 5.77 2.842 9.41 2.842 15.63 0 13.83 5.366 23.75 12.433 35.53 4.361 7.27 13.541 13.63 19.891 19.18 4.99 4.37 9.98 11.2 16.34 12.79 9.59 2.4 16.32-4.84 23.45-9.59 5.56-3.71 11.77-8.99 10.3-16.34z" fill="#e5f800" stroke="#000"/><path d="m168.74 583.08c1.13-22.55-14.43-44.16-34.1-54-8.87-4.44-19.09-5.1-28.07-9.59-3.76-1.88-6.41-5.7-9.587-7.82-2.952-1.97-5.998-5.45-8.171-8.17-3.164-3.95-4.618 1.33-4.618 3.91v2.84c0 5.75-2.18 9.75-.71 15.63 1.441 5.77 2.842 9.41 2.842 15.63 0 13.83 5.366 23.75 12.433 35.53 4.361 7.27 13.541 13.63 19.891 19.18 4.99 4.37 9.98 11.2 16.34 12.79 9.59 2.4 16.32-4.84 23.45-9.59 5.56-3.71 11.77-8.99 10.3-16.34z" fill="url(#O)" stroke="#000"/><path d="m168.74 583.08c1.13-22.55-14.43-44.16-34.1-54-8.87-4.44-19.09-5.1-28.07-9.59-3.76-1.88-6.41-5.7-9.587-7.82-2.952-1.97 5.367 10.18 1.421 12.79-4.224 2.8 9.596 29.4 11.726 41.21.17.93 10 23.12 10.65 23.8 9.67 10.07 13.87 17.84 12.31 16.97-2.8-1.55-19.41-19.89-22.67-24.28-5.88-7.91-11.861-21.63-14.91-26.96-7.77-13.57-12.875-32.71-12.026-29.32 1.441 5.77 2.842 9.41 2.842 15.63 0 13.83 5.366 23.75 12.433 35.53 4.361 7.27 13.541 13.63 19.891 19.18 4.99 4.37 9.98 11.2 16.34 12.79 9.59 2.4 16.32-4.84 23.45-9.59 5.56-3.71 11.77-8.99 10.3-16.34z" fill="url(#P)" stroke="#000"/><path d="m165.42 619.85c20.68 19.98 32.97 35.94 36.3 61.24 1.2 9.1-.84 33.32-1.38 45.72-5.11 31.44-5.52 62.86 15.72 97.42 1.11.83 2.21 1.66 3.32 2.49l-5.84-9.7c-13.66 3.46 13.83 22.62 6.97-.67-21.36-52.22-15.29-67-10.42-109.11 1.94-22.23-2.27-42.97-13.05-62.03-11.95-19.22-14.33-18.54-21.92-26.45z" fill="#7c7400"/><path d="m164.26 619.34c20.68 19.98 32.97 35.93 36.31 61.24 1.2 9.1-.85 33.32-1.38 45.72-5.12 31.43-5.53 62.86 15.71 97.41l3.33 2.49-5.85-9.69c-13.66 3.46 13.83 22.62 6.97-.67-21.36-52.22-15.29-67.01-10.42-109.11 1.95-22.24-2.27-42.98-13.05-62.03-11.95-19.22-14.32-18.54-21.92-26.46z" fill="url(#Q)"/><path d="m110.42 582.16c-5.88-7.91-11.861-21.63-14.91-26.96-7.77-13.57-12.875-32.71-12.026-29.32 1.441 5.77 2.842 9.41 2.842 15.63 0 13.83 5.366 23.75 12.433 35.53 4.361 7.27 13.541 13.63 19.891 19.18 4.99 4.37 9.98 11.2 16.34 12.79 10.76-32.47.92-13.45-3.22-8.9-5.21 5.7-7.78.87-21.35-17.95z" fill="url(#R)" stroke="#000"/><g><path d="m162.31 622.07c1.19-6-5.08.07-5.43.44-8.78 9.13-35.91 4.9-48.45-.46-3.82-1.64.01-3.35-3.35-5.86-3.32-2.48-9.673-11.36-7.973-11.63 5.363-.88 29.693 14.41 32.703 12.86 3.9-2.01-11.83-4.51-17.2-8.08-8.52-5.66-15.159-20.29-18.33-28.55-.255-.66 16.94 11.82 26.47 11.5 3.71-.12-3.24-16.11-2.78-19.55.64-4.71 23.76 19.82 27.93 21.28 1.03.36-4.79-4.63-5.93-6.25-4.34-6.15-7.53-9.91-7.85-11.98-.54-3.56 10.79 6.62 15.07 9.98 2.06 1.61 8.87 3.03 10.57 4.99 4.41 5.09 1.5 11.06 5.19 16.07 3.56 4.85 4.38 8.51 4.76 8.97 2.55 3.09-.21 5.2-5.4 6.27z" fill="#8e9f00" stroke="#000" stroke-width=".74791"/><path d="m162.31 622.07c1.19-6-5.08.07-5.43.44-8.78 9.13-36.44 8.25-48.98 2.89-3.82-1.63-5.29-6.52-8.652-9.04-13.756-10.29 17.412 1.69 21.382-.35 3.9-2.01-2.65-3.1-8.02-6.67-8.52-5.66-17.102-14.46-20.273-22.72-.254-.67 18.883 5.99 28.413 5.67 3.71-.12-4.13-9.93-3.66-13.37.8-5.88 23.59 24.03 17.86 15.89-4.34-6.16.49-17.66.18-19.72-.55-3.57 13.43 8.38 17.53 9.79 2.48.86 3.4 3.92 5.1 5.88 4.41 5.09 1.5 11.06 5.19 16.07 3.56 4.85 4.38 8.51 4.76 8.97 2.55 3.09-.21 5.2-5.4 6.27z" fill="url(#S)"/></g><g transform="matrix(.98909 -.084321 .17121 .99644 -99.59 16.673)"><path d="m176.58 613.94c.42-.24.85-.47 1.27-.71 10.62-5.93 20.32-41.04 21.62-57.43.4-5-2.66-8.76-3.12-13.62-1.9-19.89-6.14 20.28-9.37 23.86-3.18 3.52-3.61-2.08-4.01-9.65-.65-12.01-1.21-27.67-6.09-34.79-.39-.57-3.52 23.79-7.82 34.36-1.67 4.11-5.73-8.91-8.51-9.87-4.77-1.64.62 39.47-3.08 29.51-2.79-7.52-7.26-6.96-8.68-8.21-2.45-2.14.39 14.97 1.1 21.23.34 3 1.5 5.5 2.26 8.25 1.95 7.15 7.69 6.45 9.9 12.75 2.13 6.1 1.02 9.3 7.34 8.34 3.68-.56 4.18 1.36 7.19-4.02z" fill="#8e9f00" stroke="#000" stroke-width=".75892"/><path d="m178.68 613.23c.34-.21.68-.42 1.02-.62 8.57-5.24 15.54-39.43 16.14-55.59.18-4.92-2.44-8.83-2.96-13.67-2.13-19.81-4.47 19.72-7.03 23.07-2.51 3.29-3.02-2.28-3.57-9.8-.87-11.93-1.79-27.47-6-34.82-.34-.59-2.22 23.36-5.45 33.56-1.26 3.97-4.97-9.17-7.29-10.28-3.97-1.91 1.64 39.12-1.68 29.04-2.51-7.62-6.17-7.33-7.38-8.65-2.08-2.27.75 14.85 1.51 21.08.37 3 1.4 5.54 2.1 8.31 1.81 7.2 6.51 6.85 8.51 13.23 1.93 6.16 1.1 9.27 6.27 8.69 3.01-.33 3.48 1.6 5.81-3.55z" fill="url(#T)"/></g></g><g transform="matrix(1 0 .30796 1 -195.26 0)"><path d="m171.67 626.94c6.79 7.42 13.41 6.28 14.68 6.45 3.5.48-1.95-9.09 1.51-7.58 1.99.87 6.81 3.85 8.92 7.76.61 1.14 1.38-6.92 3.65-6.13.97.34 1.93 2.73 3.97 2.95 3.79.41 3.77-2.48 4.97-.27.48.88-.74-.61-1.44-4-.69-3.31-5.34-3.97-1.88-4.1 6.26-.22-2.7-2.44-3.06-7.94-.48-7.45 11.22-1.33-.41-5.96-4.98-1.99-10.45-4.21-14.83-.67-9.29 4.46-15.17 10.08-16.08 19.49z" fill="#8edc00" fill-rule="evenodd" stroke="#747200" stroke-width=".72614"/><path d="m173.82 620.34c3.25 10.19-.19 16.91-.54 18.36-.96 3.95-6.42-5.6-6.56-1.28-.07 2.48.42 8.83 2.7 12.62.66 1.09-5.99-1.17-6.23 1.59-.11 1.17 1.41 3.14.8 5.42-1.13 4.26-3.4 3.13-2.12 5.27.51.86-.2-1.03-2.6-3.09-2.35-2.01-1.09-7.29-2.51-3.6-2.58 6.67-.89-3.86-5.1-6.36-5.69-3.38-5.35 11.62-4.54-2.73.34-6.14.68-12.91 5.16-16.28 7.09-8.34 13.77-12.53 21.54-9.92z" fill="#8edc00" fill-rule="evenodd" stroke="#747200" stroke-width=".72614"/><path d="m173.82 620.34c3.25 10.19-.19 16.91-.54 18.36-.96 3.95-6.42-5.6-6.56-1.28-.07 2.48.42 8.83 2.7 12.62.66 1.09-5.99-1.17-6.23 1.59-.11 1.17 1.41 3.14.8 5.42-1.13 4.26-3.4 3.13-2.12 5.27.51.86-.2-1.03-2.6-3.09-2.35-2.01-1.09-7.29-2.51-3.6-2.58 6.67-.89-3.86-5.1-6.36-5.69-3.38-5.35 11.62-4.54-2.73.34-6.14.68-12.91 5.16-16.28 7.09-8.34 13.77-12.53 21.54-9.92z" fill="url(#U)" fill-rule="evenodd" stroke="#667200" stroke-width=".72614"/><path d="m171.67 626.94c6.79 7.42 13.41 6.28 14.68 6.45 3.5.48-1.95-9.09 1.51-7.58 1.99.87 6.81 3.85 8.92 7.76.61 1.14 1.38-6.92 3.65-6.13.97.34 1.93 2.73 3.97 2.95 3.79.41 3.77-2.48 4.97-.27.48.88-.74-.61-1.44-4-.69-3.31-5.34-3.97-1.88-4.1 6.26-.22-2.7-2.44-3.06-7.94-.48-7.45 11.22-1.33-.41-5.96-4.98-1.99-10.45-4.21-14.83-.67-9.29 4.46-15.17 10.08-16.08 19.49z" fill="url(#V)" fill-rule="evenodd" stroke="#747200" stroke-width=".72614"/><path d="m194.06 615.62c2.66.09 6.25.22 6.98 1.92 1.3 3 6.49 2.96 7.1 3.32m-18.94-11.59c2.76.03 2.99 5.73 7.18 10.3.6.66 3.82-1.7 11.6 8.36" fill="none" stroke="#6f7f00" stroke-width=".66567"/><path d="m188.31 607.73c7.79 8.97 5.61 16.05 5.64 17.49.11 3.95-10.35-3.97-9.03.15.76 2.37 3.61 8.28 7.9 11.39 1.25.9-8.25.14-7.62 2.8.28 1.14 2.94 2.68 2.93 4.97-.01 4.27 1.06 3.72-.95 5.43-1.46 1.24-3.04-.4-4.48-2.39-2.14-2.95-3.95-6.67-4.54-2.89-1.07 6.86-2.5-3.46-8.88-4.96-8.63-2.02-2.99 12.11-6.9-1.64-1.68-5.88-3.57-12.37 1.13-16.49 6.4-9.37 13.7-14.73 24.8-13.86z" fill="#8edc00" fill-rule="evenodd" stroke="#747200" stroke-width=".83209"/><path d="m188.31 607.73c7.79 8.97 5.61 16.05 5.64 17.49.11 3.95-10.35-3.97-9.03.15.76 2.37 3.61 8.28 7.9 11.39 1.25.9-8.25.14-7.62 2.8.28 1.14 2.94 2.68 2.93 4.97-.01 4.27 1.06 3.72-.95 5.43-1.46 1.24-3.04-.4-4.48-2.39-2.14-2.95-3.95-6.67-4.54-2.89-1.07 6.86-2.5-3.46-8.88-4.96-8.63-2.02-2.99 12.11-6.9-1.64-1.68-5.88-3.57-12.37 1.13-16.49 6.4-9.37 13.7-14.73 24.8-13.86z" fill="url(#W)" fill-rule="evenodd" stroke="#747200" stroke-width=".83209"/><g fill="none" stroke="#6f7f00" stroke-width=".66567"><path d="m171.84 612.63c4.04-1.81 8.1-3.09 12.29 1.48 1.63 1.78 1.74 6.13 3.81 7.94.58.52 3.36 2.31 3.97 2.66"/><path d="m175.7 624.1c4.37-1.9 6.54 4.37 7.27 6.07 1.29 3.01 6.49 5.13 7.09 5.49m-18.93-21.9c2.76.03 1.85 8.23 6.03 12.79.61.67.98 9.44 8.77 19.51"/><path d="m164.26 642.28c2.48-11.84-2.12-13.15 1.02-18.76 1.22-2.18 3.3-3.21 4.48-5.9.33-.76 1.37-4.27 1.57-5.03"/><path d="m176.76 645.31c1.23-2.18-3.94-7.04-.63-11.89.46-.67 1.37-4.27 1.57-5.03"/><path d="m189.77 609.8c2.9-3.97 7.11-.26 14.71.15"/><path d="m196.83 633c1.22-2.18-2.67-3.54.65-8.4.45-.67-.77-4.1-.57-4.86"/><path d="m147.71 649.43c2.48-11.84 4.13-7.17 7.27-12.77 1.23-2.18 3.3-3.21 4.48-5.91.34-.75 1.38-4.26 1.57-5.02"/><path d="m161.78 660.44c1.22-2.18-4.66-15.01-1.35-19.87.46-.67 1.37-4.27 1.57-5.03"/></g></g></g><path d="m350.82 586.26c-4.93-6.62 5.78-3.25 6.39-3.03 15.36 5.48 46.07-13.83 57.05-28.72 3.34-4.54 2.09-11.55 4.39-16.87 9.41-21.78-18.66 13.56-24.36 13.65-5.6.09 1.15-5.56 5.09-13.51 6.25-12.62 10.71-29.14 9.37-41.44-.11-.99-17.76 19.86-28.72 25.75-4.26 2.29-1.25-14.99-3.82-18.93-4.4-6.74-22.21 39.86-20.58 26.02 1.24-10.46-4.1-14.7-4.98-17.46-1.5-4.76-8.25 15.29-11.08 22.26-1.36 3.35-1.5 7.07-2.25 10.61-1.96 9.2 4.89 14.66 3.71 23.28-1.15 8.34.11 13.39-.05 14.21-1.04 5.5 3.33 6.29 9.84 4.18z" fill="#8e9f00" fill-rule="evenodd" stroke="#000"/><path d="m350.82 586.26c-4.93-6.62 5.78-3.25 6.39-3.03 15.36 5.48 46.07-13.83 57.05-28.72 3.34-4.54 2.09-11.55 4.39-16.87 9.41-21.78-18.66 13.56-24.36 13.65-5.6.09 1.15-5.56 5.09-13.51 6.25-12.62 10.71-29.14 9.37-41.44-.11-.99-17.76 19.86-28.72 25.75-4.26 2.29-1.25-14.99-3.82-18.93-4.4-6.74-22.21 39.86-20.58 26.02 1.24-10.46-4.1-14.7-4.98-17.46-1.5-4.76-8.25 15.29-11.08 22.26-1.36 3.35-1.5 7.07-2.25 10.61-1.96 9.2 4.89 14.66 3.71 23.28-1.15 8.34.11 13.39-.05 14.21-1.04 5.5 3.33 6.29 9.84 4.18z" fill="url(#X)" fill-rule="evenodd"/><path d="m361.55 599.35c-10.78-8.19-7.04-13.09-14.13-15.36-2.77-.88-5.58-.07-8.66-1.43-.87-.38-4.37-2.57-5.1-3.06" fill="none" stroke="#6f7f00" stroke-width=".8"/><path d="m383.28 591.99c-10.79-8.19-9.19-2.81-16.28-5.07-2.76-.89-5.57-.08-8.65-1.44-.87-.38-4.37-2.56-5.1-3.06" fill="none" stroke="#6f7f00" stroke-width=".8"/><path d="m376.75 613.01c-2.76-.89-5.78-16.78-12.53-18.26-.92-.21-4.37-2.57-5.09-3.06" fill="none" stroke="#6f7f00" stroke-width=".8"/><path d="m350.02 588.45c-8.83 8.24-17.44 6.98-19.09 7.17-4.55.53 2.53-10.1-1.96-8.41-2.58.96-8.85 4.26-11.6 8.61-.8 1.26-1.79-7.69-4.74-6.81-1.26.38-2.52 3.03-5.16 3.27-4.94.46-4.91-2.74-6.47-.29-.62.98.96-.68 1.87-4.45.9-3.67 6.94-4.4 2.45-4.54-8.14-.26 3.51-2.72 3.98-8.83.63-8.27-14.59-1.47.53-6.62 6.47-2.21 13.59-4.68 19.28-.74 12.09 4.96 19.72 11.19 20.91 21.64z" fill="#8edc00" fill-rule="evenodd" stroke="#747200" stroke-width=".87267"/><path d="m347.22 581.13c-4.22 11.32.25 18.78.71 20.39 1.25 4.39 8.35-6.22 8.52-1.42.1 2.75-.55 9.81-3.51 14.01-.86 1.22 7.79-1.29 8.11 1.77.13 1.31-1.83 3.49-1.04 6.02 1.47 4.73 4.41 3.48 2.75 5.86-.66.95.26-1.15 3.38-3.44 3.06-2.23 1.42-8.09 3.27-4 3.35 7.42 1.16-4.28 6.62-7.06 7.4-3.75 6.96 12.91 5.92-3.03-.45-6.82-.9-14.34-6.72-18.09-9.21-9.26-17.9-13.92-28.01-11.01z" fill="#8edc00" fill-rule="evenodd" stroke="#747200" stroke-width=".87267"/><path d="m347.22 581.13c-4.22 11.32.25 18.78.71 20.39 1.25 4.39 8.35-6.22 8.52-1.42.1 2.75-.55 9.81-3.51 14.01-.86 1.22 7.79-1.29 8.11 1.77.13 1.31-1.83 3.49-1.04 6.02 1.47 4.73 4.41 3.48 2.75 5.86-.66.95.26-1.15 3.38-3.44 3.06-2.23 1.42-8.09 3.27-4 3.35 7.42 1.16-4.28 6.62-7.06 7.4-3.75 6.96 12.91 5.92-3.03-.45-6.82-.9-14.34-6.72-18.09-9.21-9.26-17.9-13.92-28.01-11.01z" fill="url(#Y)" fill-rule="evenodd" stroke="#667200" stroke-width=".87267"/><path d="m350.02 588.45c-8.83 8.24-17.44 6.98-19.09 7.17-4.55.53 2.53-10.1-1.96-8.41-2.58.96-8.85 4.26-11.6 8.61-.8 1.26-1.79-7.69-4.74-6.81-1.26.38-2.52 3.03-5.16 3.27-4.94.46-4.91-2.74-6.47-.29-.62.98.96-.68 1.87-4.45.9-3.67 6.94-4.4 2.45-4.54-8.14-.26 3.51-2.72 3.98-8.83.63-8.27-14.59-1.47.53-6.62 6.47-2.21 13.59-4.68 19.28-.74 12.09 4.96 19.72 11.19 20.91 21.64z" fill="url(#Z)" fill-rule="evenodd" stroke="#747200" stroke-width=".87267"/><path d="m320.91 575.88c-3.47.1-8.13.24-9.08 2.13-1.69 3.34-8.44 3.29-9.23 3.69m24.62-12.87c-3.59.03-3.88 6.36-9.33 11.44-.78.74-4.96-1.89-15.08 9.29" fill="none" stroke="#6f7f00" stroke-width=".8"/><path d="m328.38 567.12c-10.12 9.96-7.28 17.83-7.34 19.43-.13 4.38 13.47-4.41 11.75.17-.99 2.62-4.69 9.19-10.27 12.64-1.63 1.01 10.73.16 9.9 3.12-.35 1.26-3.81 2.97-3.8 5.51.01 4.75-1.38 4.14 1.23 6.04 1.9 1.38 3.96-.44 5.83-2.65 2.78-3.28 5.13-7.42 5.9-3.22 1.39 7.62 3.25-3.85 11.54-5.5 11.22-2.25 3.89 13.45 8.98-1.83 2.18-6.53 4.64-13.74-1.46-18.32-8.33-10.4-17.83-16.36-32.26-15.39z" fill="#8edc00" fill-rule="evenodd" stroke="#747200"/><path d="m328.38 567.12c-10.12 9.96-7.28 17.83-7.34 19.43-.13 4.38 13.47-4.41 11.75.17-.99 2.62-4.69 9.19-10.27 12.64-1.63 1.01 10.73.16 9.9 3.12-.35 1.26-3.81 2.97-3.8 5.51.01 4.75-1.38 4.14 1.23 6.04 1.9 1.38 3.96-.44 5.83-2.65 2.78-3.28 5.13-7.42 5.9-3.22 1.39 7.62 3.25-3.85 11.54-5.5 11.22-2.25 3.89 13.45 8.98-1.83 2.18-6.53 4.64-13.74-1.46-18.32-8.33-10.4-17.83-16.36-32.26-15.39z" fill="url(#aa)" fill-rule="evenodd" stroke="#747200"/><path d="m349.8 572.56c-5.25-2.01-10.53-3.43-15.98 1.65-2.12 1.97-2.26 6.8-4.96 8.82-.75.57-4.37 2.56-5.16 2.95" fill="none" stroke="#6f7f00" stroke-width=".8"/><path d="m344.78 585.31c-5.68-2.12-8.5 4.85-9.45 6.74-1.68 3.34-8.44 5.7-9.22 6.09m24.62-24.32c-3.59.02-2.41 9.13-7.85 14.21-.79.73-1.28 10.48-11.4 21.66" fill="none" stroke="#6f7f00" stroke-width=".8"/><path d="m359.66 605.49c-3.23-13.15 2.75-14.61-1.33-20.83-1.59-2.42-4.29-3.56-5.83-6.56-.43-.84-1.78-4.74-2.04-5.58" fill="none" stroke="#6f7f00" stroke-width=".8"/><path d="m343.4 608.86c-1.59-2.42 5.13-7.81.82-13.21-.59-.74-1.78-4.74-2.04-5.58" fill="none" stroke="#6f7f00" stroke-width=".8"/><path d="m326.48 569.42c-3.77-4.41-9.24-.29-19.12.17" fill="none" stroke="#6f7f00" stroke-width=".8"/><path d="m317.31 595.19c-1.59-2.42 3.47-3.93-.84-9.33-.59-.74.99-4.56.73-5.4" fill="none" stroke="#6f7f00" stroke-width=".8"/><path d="m381.18 613.44c-3.23-13.16-5.38-7.96-9.46-14.18-1.59-2.43-4.29-3.57-5.83-6.57-.43-.84-1.78-4.74-2.04-5.58" fill="none" stroke="#6f7f00" stroke-width=".8"/><path d="m362.88 625.67c-1.59-2.42 6.06-16.68 1.75-22.08-.59-.74-1.78-4.74-2.04-5.58" fill="none" stroke="#6f7f00" stroke-width=".8"/><g transform="matrix(.98563 .16892 -.16892 .98563 167.38 -15.058)"><g fill-rule="evenodd"><path d="m82.917 755.66c7.674 1.53 21.653 6.82 32.963 3.99 13.78-3.44 6.38-4.71 2-7.99-11.09-8.32 27.04-5.53 39.96-11.99 1.33-.66 2.67-1.33 4-1.99 1.02-.51-5.38-3.76-7.99-8.99-1.54-3.07 22.87.99 27.97.99 8.89 0 18.78-1.99 28.97-1.99 10.36 0 24.68 13.69 30.97 19.98 13.91 13.91 2.57 10.15-11.99 5.99-18.24-5.21-49.57.66-66.93 5-9.14 2.28-18.88 5.44-25.98 8.99-7.99 3.99-17.72 4.99-26.97 4.99h-5.99c-9.498 0-12.655-4.66-18.985-10.99-2.199-2.2-.906-.53-1.998-5.99z" fill="#967f00" stroke="#000"/><path d="m82.917 755.66c7.674 1.53 21.653 6.82 32.963 3.99 13.78-3.44 6.38-4.71 2-7.99-11.09-8.32 27.04-5.53 39.96-11.99 1.33-.66 2.67-1.33 4-1.99 1.02-.51-5.38-3.76-7.99-8.99-1.54-3.07 22.87.99 27.97.99 8.89 0 18.78-1.99 28.97-1.99 10.36 0 24.68 13.69 30.97 19.98 13.91 13.91 2.57 10.15-11.99 5.99-18.24-5.21-49.57.66-66.93 5-9.14 2.28-18.88 5.44-25.98 8.99-7.99 3.99-17.72 4.99-26.97 4.99h-5.99c-9.498 0-12.655-4.66-18.985-10.99-2.199-2.2-.906-.53-1.998-5.99z" fill="url(#E)"/><path d="m264.74 767.65c-5.67-12.77-36.94-35.97-64.94-35.97-20.31 0-58.45 31.61-88.91 35.97-10 1.42-20.311-5-26.974-9.99-8.933-6.7 5.711 9.94 7.992 12.98 12.052 16.07 36.682 11.34 50.952 5 8.13-3.62 15.7-14.43 9.99-3-6.81 13.63-10.15 19.98-26.98 19.98-3.59 0 12.78 9.1 24.98 3 11.8-5.9 27.48-18.47 31.97-10.99 5.5 9.16-19.85 17.98 0 17.98 17.61 0 28.97-33.31 28.97-6.99 0 9.45 16.29-8.3 20.98-12.99 8.84-8.84 4.05-22.36 20.98-18.98 7.22 1.45 20.34 22.71 10.99 4z" fill="#96ae00" stroke="#000"/><path d="m264.74 767.65c-2.16-4.86-11.57-13.3-21.8-18.24-13.58-6.55-36.31-18.88-52.2-11.93-11.1 4.86-37.48 17.88-45.02 21.33-43.31 19.78-43.08 9.5-44.62 9.56-10.093.38-10.521-5.72-17.184-10.71-8.933-6.7 5.711 9.94 7.992 12.98 12.052 16.07 36.682 11.34 50.952 5 8.13-3.62 15.7-14.43 9.99-3-6.81 13.63-10.15 19.98-26.98 19.98-3.59 0 12.78 9.1 24.98 3 11.8-5.9 27.48-18.47 31.97-10.99 5.5 9.16-19.85 17.98 0 17.98 17.61 0 28.97-33.31 28.97-6.99 0 9.45 16.29-8.3 20.98-12.99 8.84-8.84 4.05-22.36 20.98-18.98 7.22 1.45 20.34 22.71 10.99 4z" fill="url(#F)" stroke="#6f7f00"/></g><path d="m226.77 757.71c-2.19 3.21-.17 8-.68 9.84-1.06 3.78-2.02 7.51-3.89 7.88-4.85.95-4.68-3.87-15.59 7.61m20.62-24c.59 3.41 3.15 4.89 4.78 13.51m-9.69 2.87c-.74 1.23-3.34 2.33-4.73 5.16-1.3 2.68-1.42 7.02-1.55 10.8-.09 2.52.04 2.62-2.54 3.26m23.2-47.85c-4 1.97-5.34 5.33-10.04 9.75-3.41 3.21-7.36 1.04-10.99 10.55" fill="none" stroke="#576e16" stroke-width=".6"/><path d="m194.14 773.33c.37.7-3.06 3.68-3.76 7.73-.47 2.78 1.79 6.97 1.67 7.64-.53 2.77-2.85 6.24-8.59 10.57m27-46.47c-1.7 3.49-6.86 4.11-8.2 5.47-2.75 2.8-5.52 5.49-4.91 7.29 1.59 4.68 5.68 2.14 1.14 17.31m10.59-29.82c-3.26 1.18-5.81-.3-14.1 2.56m2.32 9.84c-.7 1.25-.36 4.05-2.13 6.67-1.68 2.46-5.38 4.72-8.6 6.71-1.1.68-14.6-1.81-12.82 1.52m48.28-39.88c.16 2.7-5.25 1.43-8.25 3.58-1.93 1.38-1.66 5.79-2.25 8.25-1.09 4.56 2.75 6.91-3.7 14.78" fill="none" stroke="#576e16" stroke-width=".6"/><path d="m166.01 768.27c.23.7-3.7 3.86-5.15 8.02-.99 2.86.44 7.09.19 7.78-1.04 2.85-10.66 6.13-17.12 10.73m41.98-48.03c-2.33 3.62-7.51 4.42-9.08 5.85-3.23 2.94-6.46 5.78-6.2 7.6.67 4.75 5.17 2.03-2.16 17.69m16.03-30.84c-3.42 1.31-5.64-.14-14.33 3.04m.43 10c-.92 1.3-1.12 4.16-3.36 6.89-2.11 2.57-5.83-8.89-9.36-6.76-.52.32-5.13-.78-8 1.38-3.8 2.88-7.28 9.41-20.82 12.2m70.54-40.01c-.35 2.76-5.42 1.62-8.77 3.91-2.16 1.47-2.73 5.98-3.77 8.51-1.94 4.7 1.39 7-6.43 15.25" fill="none" stroke="#576e16" stroke-width=".6"/></g></g><g transform="matrix(.31321 0 0 .28564 51.39 -68.348)"><g fill="none" stroke="#000" transform="matrix(.78968 -.29871 .14364 .67012 86.073 226.08)"><path d="m398.55 395.29c-3.17 2.45-5.89 3.06-9.07 6.24-3.24 3.24 6.24 6.16 6.8 6.23 3.05.41 4.7 2.07 6.24 2.84.86.43 3.11 5.8 2.32 3.99-.52-1.21-15.82 7.61 1.74 3.8" stroke-width="1.5"/><path d="m396.39 408.17c.18-.05.18-.05 0 0-2.24.63 2.5-2.4 4.74-3.06 2.1-.61 3.45-.14 4.11-.21" stroke-width=".46778"/><path d="m400.21 409.5c.11-.04.11-.04 0 0-1.48.56 1.32-2.34 2.79-2.92 1.38-.55 2.42-.02 2.88-.08" stroke-width=".3933"/><path d="m402.04 410.97c.11 0 .11 0 0 0-1.46 0 1.9-1.74 3.35-1.77 1.36-.02 2.09.85 2.5.96" stroke-width=".37893"/><path d="m404.36 413.02c.09 0 .09 0 0 0-1.12 0 1.47-.96 2.59-.98 1.05-.02 1.61.47 1.92.53" stroke-width=".24773"/></g><g fill="none" stroke="#000" transform="matrix(.91818 .39616 -.39616 .91818 171.58 -124.37)"><path d="m398.55 395.29c-3.17 2.45-5.89 3.06-9.07 6.24-3.24 3.24 6.24 6.16 6.8 6.23 3.05.41 4.7 2.07 6.24 2.84.86.43 3.11 5.8 2.32 3.99-.52-1.21-15.82 7.61 1.74 3.8" stroke-width="1.5"/><path d="m396.39 408.17c.18-.05.18-.05 0 0-2.24.63 2.5-2.4 4.74-3.06 2.1-.61 3.45-.14 4.11-.21" stroke-width=".46778"/><path d="m400.21 409.5c.11-.04.11-.04 0 0-1.48.56 1.32-2.34 2.79-2.92 1.38-.55 2.42-.02 2.88-.08" stroke-width=".3933"/><path d="m402.04 410.97c.11 0 .11 0 0 0-1.46 0 1.9-1.74 3.35-1.77 1.36-.02 2.09.85 2.5.96" stroke-width=".37893"/><path d="m404.36 413.02c.09 0 .09 0 0 0-1.12 0 1.47-.96 2.59-.98 1.05-.02 1.61.47 1.92.53" stroke-width=".24773"/></g><g fill-rule="evenodd" transform="matrix(.73426 -.55178 .5521 .73383 -110.57 308.81)"><path d="m371.54 365.14s10.49-61.72 51.7-71.9c27.19-6.72 32.2 6.6 32.2 6.6s-1.08 10.79-13.27 17.45c-15.9 8.69-37.35 18.6-48.38 44.01-4.77 11-21.5 5.91-22.25 3.84z" fill="url(#w)" stroke="url(#x)" stroke-width=".88589"/><path d="m358.12 371.05s-2.95-61.36 32.19-91.16c30.15-25.57 42.47-6.9 42.47-6.9s5.15 8.88-3.56 22.1c-10.7 16.23-32.14 33.28-43.44 62.39-5.03 12.95-26.26 15.67-27.66 13.57z" fill="url(#y)" stroke="url(#z)"/></g><path d="m353.39 376s37.58-42.95 81.42-42.05c43.83.89 42.94.89 42.94.89s8.95 11.63.89 17c-8.05 5.37-6.26 25.95-51.89 44.74-22.88 9.42-76.04 8.05-76.04 8.05z" fill="#c87137" fill-rule="evenodd" stroke="#000"/><path d="m355.47 374.8c-5.95-3.45-29.82-8.34-34.3 12.24-3.77 17.35 1.64 26.03 9.2 30.12 2.45 1.33 6.84 4.61 9.51 5.11 4.39.82 6.99-1.81 10.85-2.86 8.74-2.38 15.2-9.14 15.11-18.36-.17-17-4.46-22.83-10.37-26.25z" fill="#a05a2c" fill-rule="evenodd" stroke="#000"/><path d="m416.34 336.96c16.34 9.11 19.76 35.02 23.21 51.81l-9.11 4.67c-.83-11.53-2.35-31.72-10.72-39.65-3-2.16-12.48-12.44-16.2-12.93z" fill="url(#m)"/><path d="m391.23 346.89c16.35 9.11 22.77 34.42 26.21 51.21l-10.6 1.97c-.84-11.53-3.85-26.62-12.22-34.55-3.01-2.16-9.78-11.83-13.51-12.33z" fill="url(#l)"/><path d="m371.23 360.89c16.35 9.11 17.96 23.62 21.41 40.41l-12.7 2.27c-.84-11.53 3.05-16.12-5.32-24.05-3.01-2.16-10.08-10.03-13.81-10.53z" fill="url(#k)"/><path d="m441.94 334.96c8.29 4.62 8.48 12.05 11.86 19.27 3.05 6.5 2.75 13.76 4.45 22.04l-8.8 6.77c-.84-11.53-.25-14.92-3.22-27.05-3.01-6.96-13.98-20.84-17.7-21.33z" fill="url(#n)"/><path d="m461.94 334.96c8.29 4.62 6.38 6.05 9.76 13.27 3.05 6.5-2.65 5.96-.95 14.24l-7.3 9.17c-.84-11.53 3.95-8.32.98-20.45-3.01-6.96-12.18-16.04-15.9-16.53z" fill="url(#o)"/><g fill="none" stroke="#000" stroke-width=".7" transform="matrix(-1 0 0 1 677.76 -.36459)"><path d="m331.94 384.11c-2.38-5.06-1.16-6.26-1.16-6.26l-.29.3"/><path d="m329.38 383.5c-3.07-3.03-1.54-5.22-1.54-5.22"/><path d="m329.38 383.5c-3.07-3.03-1.54-5.22-1.54-5.22"/><path d="m327.38 383.5c-3.07-3.03-2.27-4.53-2.27-4.53"/><path d="m324.74 384.39c-3.07-3.04-2.28-4.54-2.28-4.54"/><path d="m323.52 384.97c-3.77-2.09-3.41-3.75-3.41-3.75"/><path d="m321.73 386.17c-3.77-2.09-3.41-3.75-3.41-3.75"/><path d="m320.64 388.24c-3.78-2.1-3.42-3.76-3.42-3.76"/></g><path d="m358.83 390.2a8.5508 7.5007 0 1 1 -17.1 0 8.5508 7.5007 0 1 1 17.1 0z" fill="#f9e100" fill-rule="evenodd" transform="matrix(.88914 .20418 -.16562 .72123 103.91 34.406)"/><g fill="url(#p)" fill-rule="evenodd" stroke="url(#q)" stroke-width=".4" transform="matrix(-1 0 0 1 676.98 -.000021)"><path d="m358.83 390.2a8.5508 7.5007 0 1 1 -17.1 0 8.5508 7.5007 0 1 1 17.1 0z" transform="matrix(.6077 -.18726 .15451 .51115 54.334 253.34)"/><path d="m358.83 390.2a8.5508 7.5007 0 1 1 -17.1 0 8.5508 7.5007 0 1 1 17.1 0z" transform="matrix(.6077 -.18726 .15451 .51115 54.334 253.34)"/></g><g fill="none" stroke="#000" stroke-width=".7"><path d="m331.94 384.11c-2.38-5.06-1.16-6.26-1.16-6.26l-.29.3"/><path d="m329.38 383.5c-3.07-3.03-1.54-5.22-1.54-5.22"/><path d="m329.38 383.5c-3.07-3.03-1.54-5.22-1.54-5.22"/><path d="m327.38 383.5c-3.07-3.03-2.27-4.53-2.27-4.53"/><path d="m324.74 384.39c-3.07-3.04-2.28-4.54-2.28-4.54"/><path d="m323.52 384.97c-3.77-2.09-3.41-3.75-3.41-3.75"/><path d="m321.73 386.17c-3.77-2.09-3.41-3.75-3.41-3.75"/><path d="m320.64 388.24c-3.78-2.1-3.42-3.76-3.42-3.76"/></g><g fill-rule="evenodd"><g><path d="m358.83 390.2a8.5508 7.5007 0 1 1 -17.1 0 8.5508 7.5007 0 1 1 17.1 0z" fill="#f9e100" transform="matrix(.87255 -.2663 .22185 .7269 -65.571 198.34)"/><g fill="url(#p)" stroke="url(#q)" stroke-width=".4"><path d="m358.83 390.2a8.5508 7.5007 0 1 1 -17.1 0 8.5508 7.5007 0 1 1 17.1 0z" transform="matrix(.6077 -.18726 .15451 .51115 54.334 253.34)"/><path d="m358.83 390.2a8.5508 7.5007 0 1 1 -17.1 0 8.5508 7.5007 0 1 1 17.1 0z" transform="matrix(.6077 -.18726 .15451 .51115 54.334 253.34)"/></g></g><path d="m358.83 390.2a8.5508 7.5007 0 1 1 -17.1 0 8.5508 7.5007 0 1 1 17.1 0z" fill="url(#r)" transform="matrix(-.017498 .82674 -.58974 -.017024 574.61 114.77)"/><path d="m342.84 400.29a3.8282 4.6789 0 1 1 -7.66 0 3.8282 4.6789 0 1 1 7.66 0z" fill="#db2700" stroke="url(#s)" stroke-opacity=".74252" stroke-width=".7" transform="translate(-.48612 -.97225)"/><path d="m342.84 400.29a3.8282 4.6789 0 1 1 -7.66 0 3.8282 4.6789 0 1 1 7.66 0z" fill="url(#t)" transform="translate(-.48612 -.97225)"/><path d="m330.56 407.15s14.95 9.24 19.57-1.7c4.62-10.93 2.31 1.22 2.31 1.22s-5.84 9.69-13.49 7.78c-7.29-1.83-9.24-5.96-9.24-5.96z" fill="#db4b00" stroke="#b60000"/><path d="m309.42 387.47a3.9498 3.6459 0 1 1 -7.9 0 3.9498 3.6459 0 1 1 7.9 0z" fill="url(#u)" stroke="url(#v)" stroke-width=".7" transform="matrix(.67272 0 0 .72878 141.96 105.33)"/><path d="m309.42 387.47a3.9498 3.6459 0 1 1 -7.9 0 3.9498 3.6459 0 1 1 7.9 0z" fill="url(#u)" stroke="url(#v)" stroke-width=".7" transform="matrix(-.67272 0 0 .72878 534.47 105.82)"/></g><path d="m331.25 375.8s-8.19-39.97-27.99-35.53c-15.95 3.58-6.44 11.23-2.26 12.56 4.39 1.39 14.51-1.79 8.94-6.58-4.7-4.04-9.59-1.22-8.64 1.39.76 2.1 4.38 1.63 4.38 1.63l-.21.27" fill="none" stroke="#000" stroke-width="2.2"/><path d="m390.05 361.48s27.26-48.1 68.95-56.03c36.14-6.88 29.47 9.62 29.47 9.62s1.1 8.79-11.03 15.57c-14.89 8.31-46.9 9.24-66.99 27.21-8.93 7.99-20 5.78-20.4 3.63z" fill="url(#C)" fill-rule="evenodd" stroke="url(#D)" stroke-width=".88589"/><path d="m375.86 365.15s22.69-64.5 51.72-80.92c40.09-22.67 37.69-3.89 37.69-3.89s3.65 9.59-7.06 21.24c-13.16 14.3-37.05 27.69-52.88 54.62-7.04 11.98-28.43 11.26-29.47 8.95z" fill="url(#A)" fill-rule="evenodd" stroke="url(#B)"/><path d="m292.65 303.73a7.0488 5.8335 0 1 1 -14.1 0 7.0488 5.8335 0 1 1 14.1 0z" fill="#f51300" fill-rule="evenodd" transform="matrix(.46809 -.29204 .1985 .31816 192.98 338.87)"/><g fill-rule="evenodd"><g fill="#f51300"><path d="m292.65 303.73a7.0488 5.8335 0 1 1 -14.1 0 7.0488 5.8335 0 1 1 14.1 0z" transform="matrix(.46809 -.29204 .1985 .31816 200.98 320.87)"/><path d="m292.65 303.73a7.0488 5.8335 0 1 1 -14.1 0 7.0488 5.8335 0 1 1 14.1 0z" transform="matrix(.46809 -.29204 .1985 .31816 210.98 304.87)"/><path d="m292.65 303.73a7.0488 5.8335 0 1 1 -14.1 0 7.0488 5.8335 0 1 1 14.1 0z" transform="matrix(.46809 -.29204 .1985 .31816 222.98 288.87)"/><path d="m292.65 303.73a7.0488 5.8335 0 1 1 -14.1 0 7.0488 5.8335 0 1 1 14.1 0z" transform="matrix(.46809 -.29204 .1985 .31816 236.98 276.87)"/><path d="m292.65 303.73a7.0488 5.8335 0 1 1 -14.1 0 7.0488 5.8335 0 1 1 14.1 0z" transform="matrix(.46809 -.29204 .1985 .31816 254.98 268.87)"/></g><path d="m292.65 303.73a7.0488 5.8335 0 1 1 -14.1 0 7.0488 5.8335 0 1 1 14.1 0z" fill="#f59f00" transform="matrix(.30544 -.18959 .12952 .20654 317.17 286.54)"/><path d="m292.65 303.73a7.0488 5.8335 0 1 1 -14.1 0 7.0488 5.8335 0 1 1 14.1 0z" fill="#f57200" transform="matrix(.30544 -.18959 .12952 .20654 305.17 292.54)"/><path d="m292.65 303.73a7.0488 5.8335 0 1 1 -14.1 0 7.0488 5.8335 0 1 1 14.1 0z" fill="#f57200" transform="matrix(.30544 -.18959 .12952 .20654 293.17 304.54)"/><path d="m292.65 303.73a7.0488 5.8335 0 1 1 -14.1 0 7.0488 5.8335 0 1 1 14.1 0z" fill="#f57200" transform="matrix(.30544 -.18959 .12952 .20654 283.17 318.54)"/><path d="m292.65 303.73a7.0488 5.8335 0 1 1 -14.1 0 7.0488 5.8335 0 1 1 14.1 0z" fill="#f57200" transform="matrix(.30544 -.18959 .12952 .20654 271.17 334.54)"/></g><g fill-rule="evenodd" transform="matrix(.92065 .17015 -.16692 .90319 95.637 -18.902)"><g fill="#f51300"><path d="m292.65 303.73a7.0488 5.8335 0 1 1 -14.1 0 7.0488 5.8335 0 1 1 14.1 0z" transform="matrix(.46809 -.29204 .1985 .31816 200.98 320.87)"/><path d="m292.65 303.73a7.0488 5.8335 0 1 1 -14.1 0 7.0488 5.8335 0 1 1 14.1 0z" transform="matrix(.46809 -.29204 .1985 .31816 210.98 304.87)"/><path d="m292.65 303.73a7.0488 5.8335 0 1 1 -14.1 0 7.0488 5.8335 0 1 1 14.1 0z" transform="matrix(.46809 -.29204 .1985 .31816 222.98 288.87)"/><path d="m292.65 303.73a7.0488 5.8335 0 1 1 -14.1 0 7.0488 5.8335 0 1 1 14.1 0z" transform="matrix(.46809 -.29204 .1985 .31816 236.98 276.87)"/><path d="m292.65 303.73a7.0488 5.8335 0 1 1 -14.1 0 7.0488 5.8335 0 1 1 14.1 0z" transform="matrix(.46809 -.29204 .1985 .31816 254.98 268.87)"/></g><path d="m292.65 303.73a7.0488 5.8335 0 1 1 -14.1 0 7.0488 5.8335 0 1 1 14.1 0z" fill="#f59f00" transform="matrix(.30544 -.18959 .12952 .20654 317.17 286.54)"/><path d="m292.65 303.73a7.0488 5.8335 0 1 1 -14.1 0 7.0488 5.8335 0 1 1 14.1 0z" fill="#f57200" transform="matrix(.30544 -.18959 .12952 .20654 305.17 292.54)"/><path d="m292.65 303.73a7.0488 5.8335 0 1 1 -14.1 0 7.0488 5.8335 0 1 1 14.1 0z" fill="#f57200" transform="matrix(.30544 -.18959 .12952 .20654 293.17 304.54)"/><path d="m292.65 303.73a7.0488 5.8335 0 1 1 -14.1 0 7.0488 5.8335 0 1 1 14.1 0z" fill="#f57200" transform="matrix(.30544 -.18959 .12952 .20654 283.17 318.54)"/><path d="m292.65 303.73a7.0488 5.8335 0 1 1 -14.1 0 7.0488 5.8335 0 1 1 14.1 0z" fill="#f57200" transform="matrix(.30544 -.18959 .12952 .20654 271.17 334.54)"/></g><g fill-rule="evenodd" transform="matrix(.60506 -.70528 .7278 .57593 -136.13 442.74)"><g fill="#f51300"><path d="m292.65 303.73a7.0488 5.8335 0 1 1 -14.1 0 7.0488 5.8335 0 1 1 14.1 0z" transform="matrix(.46809 -.29204 .1985 .31816 200.98 320.87)"/><path d="m292.65 303.73a7.0488 5.8335 0 1 1 -14.1 0 7.0488 5.8335 0 1 1 14.1 0z" transform="matrix(.46809 -.29204 .1985 .31816 210.98 304.87)"/><path d="m292.65 303.73a7.0488 5.8335 0 1 1 -14.1 0 7.0488 5.8335 0 1 1 14.1 0z" transform="matrix(.46809 -.29204 .1985 .31816 222.98 288.87)"/><path d="m292.65 303.73a7.0488 5.8335 0 1 1 -14.1 0 7.0488 5.8335 0 1 1 14.1 0z" transform="matrix(.46809 -.29204 .1985 .31816 236.98 276.87)"/><path d="m292.65 303.73a7.0488 5.8335 0 1 1 -14.1 0 7.0488 5.8335 0 1 1 14.1 0z" transform="matrix(.46809 -.29204 .1985 .31816 254.98 268.87)"/></g><path d="m292.65 303.73a7.0488 5.8335 0 1 1 -14.1 0 7.0488 5.8335 0 1 1 14.1 0z" fill="#f59f00" transform="matrix(.30544 -.18959 .12952 .20654 317.17 286.54)"/><path d="m292.65 303.73a7.0488 5.8335 0 1 1 -14.1 0 7.0488 5.8335 0 1 1 14.1 0z" fill="#f57200" transform="matrix(.30544 -.18959 .12952 .20654 305.17 292.54)"/><path d="m292.65 303.73a7.0488 5.8335 0 1 1 -14.1 0 7.0488 5.8335 0 1 1 14.1 0z" fill="#f57200" transform="matrix(.30544 -.18959 .12952 .20654 293.17 304.54)"/><path d="m292.65 303.73a7.0488 5.8335 0 1 1 -14.1 0 7.0488 5.8335 0 1 1 14.1 0z" fill="#f57200" transform="matrix(.30544 -.18959 .12952 .20654 283.17 318.54)"/><path d="m292.65 303.73a7.0488 5.8335 0 1 1 -14.1 0 7.0488 5.8335 0 1 1 14.1 0z" fill="#f57200" transform="matrix(.30544 -.18959 .12952 .20654 271.17 334.54)"/><path d="m292.65 303.73a7.0488 5.8335 0 1 1 -14.1 0 7.0488 5.8335 0 1 1 14.1 0z" fill="#f51300" transform="matrix(.4796943753 -.1841220941 .1296417578 .3211337054 227.1096166 305.1013223)"/><path d="m292.65 303.73a7.0488 5.8335 0 1 1 -14.1 0 7.0488 5.8335 0 1 1 14.1 0z" fill="#f51300" transform="matrix(.4796943753 -.1841220941 .1296417578 .3211337054 238.9868366 292.3517823)"/><path d="m292.65 303.73a7.0488 5.8335 0 1 1 -14.1 0 7.0488 5.8335 0 1 1 14.1 0z" fill="#f51300" transform="matrix(.4796943753 -.1841220941 .1296417578 .3211337054 252.7053566 279.9425423)"/><path d="m292.65 303.73a7.0488 5.8335 0 1 1 -14.1 0 7.0488 5.8335 0 1 1 14.1 0z" fill="#f51300" transform="matrix(.4796943753 -.1841220941 .1296417578 .3211337054 267.5974966 271.4863623)"/><path d="m292.65 303.73a7.0488 5.8335 0 1 1 -14.1 0 7.0488 5.8335 0 1 1 14.1 0z" fill="#f51300" transform="matrix(.4796943753 -.1841220941 .1296417578 .3211337054 285.5045566 267.3235423)"/><path d="m292.65 303.73a7.0488 5.8335 0 1 1 -14.1 0 7.0488 5.8335 0 1 1 14.1 0z" fill="#f59f00" transform="matrix(.3128496988 -.1192651761 .0847669312 .2085826906 339.8103037 293.8645381)"/><path d="m292.65 303.73a7.0488 5.8335 0 1 1 -14.1 0 7.0488 5.8335 0 1 1 14.1 0z" fill="#f57200" transform="matrix(.3128496988 -.1192651761 .0847669312 .2085826906 327.7609837 297.2418781)"/><path d="m292.65 303.73a7.0488 5.8335 0 1 1 -14.1 0 7.0488 5.8335 0 1 1 14.1 0z" fill="#f57200" transform="matrix(.3128496988 -.1192651761 .0847669312 .2085826906 314.7101437 306.0383581)"/><path d="m292.65 303.73a7.0488 5.8335 0 1 1 -14.1 0 7.0488 5.8335 0 1 1 14.1 0z" fill="#f57200" transform="matrix(.3128496988 -.1192651761 .0847669312 .2085826906 303.1667637 316.9815181)"/><path d="m292.65 303.73a7.0488 5.8335 0 1 1 -14.1 0 7.0488 5.8335 0 1 1 14.1 0z" fill="#f57200" transform="matrix(.3128496988 -.1192651761 .0847669312 .2085826906 289.4482437 329.3907581)"/></g><path d="m350.41 375.24s6.75-40.24 26.7-36.51c16.07 3.01 6.84 11 2.71 12.47-4.33 1.55-14.57-1.26-9.17-6.25 4.56-4.2 9.55-1.56 8.69 1.08-.69 2.13-4.32 1.78-4.32 1.78l.22.27" fill="none" stroke="#000" stroke-width="2.2"/><g fill="none" stroke="#000"><path d="m398.55 395.29c-3.17 2.45-5.89 3.06-9.07 6.24-3.24 3.24 6.24 6.16 6.8 6.23 3.05.41 4.7 2.07 6.24 2.84.86.43 3.11 5.8 2.32 3.99-.52-1.21-15.82 7.61 1.74 3.8" stroke-width="1.5"/><path d="m396.39 408.17c.18-.05.18-.05 0 0-2.24.63 2.5-2.4 4.74-3.06 2.1-.61 3.45-.14 4.11-.21" stroke-width=".46778"/><path d="m400.21 409.5c.11-.04.11-.04 0 0-1.48.56 1.32-2.34 2.79-2.92 1.38-.55 2.42-.02 2.88-.08" stroke-width=".3933"/><path d="m402.04 410.97c.11 0 .11 0 0 0-1.46 0 1.9-1.74 3.35-1.77 1.36-.02 2.09.85 2.5.96" stroke-width=".37893"/><path d="m404.36 413.02c.09 0 .09 0 0 0-1.12 0 1.47-.96 2.59-.98 1.05-.02 1.61.47 1.92.53" stroke-width=".24773"/></g><g fill="none" stroke="#000" transform="matrix(.92381 -.24624 .061894 .87051 30.876 146.22)"><path d="m398.55 395.29c-3.17 2.45-5.89 3.06-9.07 6.24-3.24 3.24 6.24 6.16 6.8 6.23 3.05.41 4.7 2.07 6.24 2.84.86.43 3.11 5.8 2.32 3.99-.52-1.21-15.82 7.61 1.74 3.8" stroke-width="1.5"/><path d="m396.39 408.17c.18-.05.18-.05 0 0-2.24.63 2.5-2.4 4.74-3.06 2.1-.61 3.45-.14 4.11-.21" stroke-width=".46778"/><path d="m400.21 409.5c.11-.04.11-.04 0 0-1.48.56 1.32-2.34 2.79-2.92 1.38-.55 2.42-.02 2.88-.08" stroke-width=".3933"/><path d="m402.04 410.97c.11 0 .11 0 0 0-1.46 0 1.9-1.74 3.35-1.77 1.36-.02 2.09.85 2.5.96" stroke-width=".37893"/><path d="m404.36 413.02c.09 0 .09 0 0 0-1.12 0 1.47-.96 2.59-.98 1.05-.02 1.61.47 1.92.53" stroke-width=".24773"/></g><g fill="none" stroke="#000" transform="matrix(.78968 -.29871 .14364 .67012 73.978 238.72)"><path d="m398.55 395.29c-3.17 2.45-5.89 3.06-9.07 6.24-3.24 3.24 6.24 6.16 6.8 6.23 3.05.41 4.7 2.07 6.24 2.84.86.43 3.11 5.8 2.32 3.99-.52-1.21-15.82 7.61 1.74 3.8" stroke-width="1.5"/><path d="m396.39 408.17c.18-.05.18-.05 0 0-2.24.63 2.5-2.4 4.74-3.06 2.1-.61 3.45-.14 4.11-.21" stroke-width=".46778"/><path d="m400.21 409.5c.11-.04.11-.04 0 0-1.48.56 1.32-2.34 2.79-2.92 1.38-.55 2.42-.02 2.88-.08" stroke-width=".3933"/><path d="m402.04 410.97c.11 0 .11 0 0 0-1.46 0 1.9-1.74 3.35-1.77 1.36-.02 2.09.85 2.5.96" stroke-width=".37893"/><path d="m404.36 413.02c.09 0 .09 0 0 0-1.12 0 1.47-.96 2.59-.98 1.05-.02 1.61.47 1.92.53" stroke-width=".24773"/></g></g></svg>