<svg preserveAspectRatio="xMidYMid meet" viewBox="-37.5 -37.5 450 450" xmlns="http://www.w3.org/2000/svg" xmlns:xlink="http://www.w3.org/1999/xlink" zoomAndPan="magnify"><clipPath id="a"><path d="m121 90.292969h133.417969v129h-133.417969zm0 0"/></clipPath><path d="m-37.5-37.499999h450v449.999989h-450z" fill="#fff"/><path d="m-37.5-37.499999h450v449.999989h-450z" fill="#fff"/><path d="m-37.5-37.499999h450v449.999989h-450z" fill="#fff"/><path d="m156.257812 106.210938c-.445312-.320313-.941406-.507813-1.488281-.5625-.550781-.054688-1.074219.035156-1.574219.261718-.472656.203125-.960937.410156-1.460937.628906-2.007813.878907-4.085937 1.78125-5.992187 3.039063-2.191407 1.4375-4.085938 3.242187-5.773438 4.839844-.382812.347656-.652344.765625-.804688 1.257812-.152343.496094-.164062.992188-.042968 1.492188.136718.535156.402344 1.003906.785156 1.40625.386719.398437.847656.679687 1.382812.839843.507813.148438 1.015626.160157 1.53125.03125.511719-.128906.960938-.375 1.335938-.746093l.125-.117188c1.71875-1.617187 3.34375-3.164062 5.242188-4.3125 1.578124-.90625 3.207031-1.707031 4.890624-2.402343.507813-.21875 1.011719-.4375 1.511719-.660157.460938-.191406.839844-.484375 1.136719-.882812.296875-.398438.472656-.84375.519531-1.335938.039063-.546875-.0625-1.066406-.296875-1.5625-.234375-.492187-.578125-.898437-1.027344-1.214843zm0 0" fill="#263151"/><path d="m130.984375 114.421875c.488281.074219.964844.015625 1.421875-.175781.457031-.1875.835938-.484375 1.128906-.882813 1.414063-1.796875 2.964844-3.464843 4.65625-5.007812 1.691406-1.539063 3.496094-2.933594 5.417969-4.179688 1.921875-1.246093 3.933594-2.328125 6.03125-3.246093 2.101563-.914063 4.261719-1.65625 6.484375-2.21875.507812-.113282.949219-.351563 1.324219-.707032.375-.359375.632812-.785156.769531-1.285156.144531-.535156.148438-1.074219.007812-1.609375-.140624-.539063-.40625-1.007813-.792968-1.40625-.367188-.375-.808594-.632813-1.316406-.769531-.507813-.136719-1.019532-.136719-1.527344 0-2.507813.640625-4.945313 1.476562-7.316406 2.511718-2.371094 1.03125-4.644532 2.25-6.816407 3.652344-2.171875 1.398438-4.214843 2.964844-6.132812 4.695313-1.914063 1.734375-3.679688 3.605469-5.289063 5.621093-.347656.429688-.558594.917969-.640625 1.464844-.078125.546875-.015625 1.074219.191407 1.585938.199218.511718.511718.945312.941406 1.292968.425781.347657.910156.570313 1.457031.664063zm0 0" fill="#263151"/><g clip-path="url(#a)"><path d="m247.691406 141.476562c.3125-1.457031.714844-2.925781 1.105469-4.355468l.082031-.304688c1.691406-.445312 3.050782-1.378906 4.074219-2.796875 1.242187-1.691406 1.402344-3.886719.433594-5.902343-.078125-.234376-.1875-.457032-.328125-.664063-.183594-.273437-.386719-.535156-.609375-.777344-.621094-.734375-1.371094-1.296875-2.25-1.6875-.238281-.105469-.484375-.175781-.742188-.21875-.503906-.152343-1.015625-.238281-1.539062-.257812-.527344-.023438-1.042969.027343-1.558594.140625-.511719.113281-1 .292968-1.464844.535156-.464843.242188-.890625.542969-1.277343.894531-.722657.667969-1.265626 1.457031-1.636719 2.363281-.371094.910157-.53125 1.851563-.480469 2.832032.058594 1.484375.597656 2.773437 1.609375 3.871094l-.078125.289062c-.230469.835938-.460938 1.691406-.679688 2.554688l-.222656-.042969c-1-.1875-1.992187-.152344-2.976562.105469-1.925782-4.273438-4.945313-8.40625-8.964844-12.300782-.089844-.09375-.183594-.183594-.285156-.269531-1.910156-1.808594-3.929688-3.488281-6.058594-5.03125-9.324219-6.769531-20.769531-10.683594-33.214844-11.375.019532-.652344.03125-1.3125.03125-1.980469.382813-.140625.757813-.308594 1.121094-.503906 3.929688-2.101562 5.390625-7.359375 3.191406-11.488281-.589844-1.089844-1.382812-2.011719-2.375-2.765625-.992187-.75-2.09375-1.265625-3.3125-1.542969-1.078125-.257813-2.164062-.273437-3.253906-.050781s-2.082031.667968-2.972656 1.328125l-.078125.066406c-.402344.285156-.777344.605469-1.125.953125-.347657.347656-.664063.722656-.949219 1.125-.285156.398438-.535156.820312-.75 1.261719-.214844.445312-.390625.902343-.527344 1.371093-.136718.472657-.234375.953126-.292968 1.441407-.058594.488281-.074219.976562-.050782 1.464843.023438.492188.085938.976563.191406 1.457032.105469.480468.25.949218.433594 1.402344.425782 1.0625 1.050782 1.988281 1.878906 2.777343.824219.792969 1.78125 1.378907 2.859376 1.761719.011718.640625.003906 1.285156-.019532 1.933594-12.394531.710937-23.804687 4.625-33.082031 11.371094-2.128906 1.542968-4.144531 3.21875-6.050781 5.023437-.113282.085937-.222656.179687-.320313.28125-4.019531 3.882813-7.027343 8.011719-8.933593 12.277344-.324219-.082031-.652344-.140625-.988282-.175781-.75-.078126-1.492187-.039063-2.226562.125-.21875-.859376-.449219-1.710938-.675782-2.546876l-.082031-.296874c1.007813-1.070313 1.542969-2.34375 1.601563-3.808594.054687-.984375-.105469-1.9375-.46875-2.851563-.367188-.914062-.910156-1.710937-1.628906-2.390625-.382813-.359375-.808594-.664062-1.277344-.910156-.464844-.246094-.953125-.429688-1.46875-.546875-.515625-.113281-1.035156-.164063-1.5625-.140625s-1.042969.113281-1.546875.269531c-.253907.039063-.5.113281-.734375.214844-.890625.390625-1.652344.957031-2.28125 1.699219-.21875.238281-.417969.492187-.597656.761718-.136719.207032-.246094.429688-.328126.667969-.96875 2.015625-.8125 4.214844.433594 5.902344 1.023438 1.421875 2.382813 2.355469 4.082032 2.800781l.082031.304688c.394531 1.429687.792969 2.902344 1.105469 4.359375-.109376.125-.214844.253906-.3125.386719-4.0625 5.203124-5.09375 12.121093-5.242188 17.007812-.117188 3.707031.320312 7.351562 1.308594 10.925781 1.082031 3.902344 2.476562 8.234375 5.300781 10.199219.898437.632812 1.886719 1.0625 2.960937 1.289062 1.078126.226563 2.15625.234376 3.234376.023438 1.4375 5.386719 4.289062 11.011719 8.316406 16.367188 2.992187 4.007812 6.476562 7.53125 10.460937 10.570312s8.308594 5.472656 12.980469 7.304688c6.269531 2.425781 13.296875 3.691406 20.898438 3.734374h.21875c12.5-.070312 23.910156-3.648437 32.992187-10.34375 3.636719-2.675781 6.890625-5.753906 9.757813-9.234374 2.871093-3.480469 5.269531-7.257813 7.199218-11.328126 1.089844-2.277343 1.980469-4.628906 2.671875-7.054687 1.230469.234375 2.457031.203125 3.675781-.101563 4.09375-1.152343 5.59375-5.117187 6.800782-8.285156l.101562-.269531c1.335938-3.5625 2.078125-7.246094 2.230469-11.046875.308594-7.003906-1.175781-13.492188-4.1875-18.285156-.410156-.652344-.859375-1.273438-1.355469-1.863282zm0 0" fill="#263151"/></g><path d="m223.628906 106.542969c-.488281-.210938-.976562-.425781-1.460937-.644531-.378907-.167969-.777344-.261719-1.195313-.269532-.417968-.011718-.820312.058594-1.210937.207032-.386719.152343-.730469.371093-1.03125.660156-.300781.289062-.53125.625-.695313 1.007812-.164062.335938-.253906.691406-.269531 1.066406-.019531.375.039063.738282.171875 1.085938.132812.351562.328125.664062.589844.933594.261718.269531.5625.480468.910156.628906l1.519531.667969c1.675781.683593 3.300781 1.476562 4.871094 2.378906 1.894531 1.152344 3.519531 2.695313 5.25 4.328125l.117187.105469c.570313.554687 1.253907.835937 2.050782.839843.882812-.007812 1.621094-.335937 2.214844-.980468.28125-.273438.492187-.59375.640624-.957032.148438-.359374.21875-.738281.210938-1.128906-.003906-.390625-.089844-.765625-.25-1.121094-.160156-.355468-.386719-.667968-.675781-.933593-1.683594-1.597657-3.59375-3.40625-5.777344-4.847657-1.894531-1.246093-3.96875-2.152343-5.980469-3.027343zm0 0" fill="#263151"/><path d="m219.238281 98.710938c2.222657.5625 4.382813 1.304687 6.484375 2.21875 2.097656.917968 4.109375 2 6.03125 3.246093 1.921875 1.246094 3.726563 2.640625 5.417969 4.179688 1.691406 1.542969 3.242187 3.210937 4.65625 5.007812.292969.398438.671875.695313 1.128906.882813.457031.191406.933594.25 1.421875.175781.546875-.09375 1.03125-.316406 1.457032-.664063.429687-.347656.742187-.78125.941406-1.292968.207031-.511719.269531-1.039063.191406-1.585938-.082031-.546875-.292969-1.035156-.640625-1.464844-1.609375-2.015624-3.375-3.886718-5.289063-5.621093-1.917968-1.730469-3.960937-3.296875-6.132812-4.695313-2.171875-1.402344-4.445312-2.621094-6.816406-3.652344-2.371094-1.035156-4.808594-1.871093-7.316406-2.511718-.507813-.136719-1.019532-.136719-1.527344 0-.507813.136718-.949219.394531-1.316406.769531-.386719.398437-.652344.867187-.792969 1.40625-.140625.535156-.136719 1.074219.007812 1.609375.136719.5.394531.925781.769531 1.285156.375.355469.816407.59375 1.324219.707032zm0 0" fill="#263151"/><path d="m237.886719 169.710938c-.742188-4.605469-1.261719-9.171876-1.164063-13.847657.085938-4.257812 1.082032-8.480469 1.066406-12.722656-.019531-6.296875-4.183593-11.425781-9.347656-14.636719-.066406-.042968-.132812-.039062-.191406.015625l-1.507812-1.96875c.109374-.101562.082031-.324219-.097657-.304687-2.539062.3125-4.390625 1.832031-6.097656 3.632812-2.464844 2.605469-4.738281 5.417969-6.945313 8.242188-4.316406 5.523437-8.269531 11.3125-12.132812 17.152344-3.371094 5.097656-8.394531 10.859374-8.335938 17.300781.039063 4.347656 2.019532 8.582031 4.375 12.429687-3.167968.222656-6.359374.699219-9.515624.921875-.179688 0-.359376-.015625-.539063-.03125-2.597656-.199219-5.179687-.5625-7.773437-.804687-.457032-.042969-.917969-.078125-1.378907-.109375 1.484375-2.460938 2.667969-5.054688 3.550781-7.785157.785157-2.457031.890626-4.945312.3125-7.457031-.023437-.09375-.046874-.191406-.066406-.285156l-.074218-.285156c-.023438-.097657-.050782-.195313-.078126-.292969-.851562-3.003906-2.539062-5.824219-4.421874-8.703125-4.511719-6.902344-9.050782-13.800781-14.054688-20.367187-2.292969-3.011719-4.679688-5.957032-7.203125-8.78125-1.976563-2.21875-4.058594-4.402344-7.144531-4.785157-.175782-.023437-.207032.199219-.097656.300781l-1.507813 1.972657c-.058594-.054688-.121094-.0625-.1875-.019531-4.519531 2.808593-8.441406 7.144531-9.207031 12.5625-.496094 3.476562.40625 7.003906.707031 10.46875.320313 3.753906.320313 7.507812 0 11.261718-.328125 3.820313-1.285156 7.570313-1.503906 11.394532-.1875 3.269531.539062 6.363281 1.636719 9.425781 1.542968 4.21875 3.621093 8.152343 6.242187 11.804687s5.683594 6.886719 9.191406 9.707032c1.042969.839843 2.128907 1.632812 3.25 2.382812.496094.335938 1.257813 1.054688 1.957031.914062.03125-.003906.058594-.011718.089844-.023437.636719.585937 1.585938.898437 2.371094 1.289063 2.101562 1.058593 4.226562 2.082031 6.402344 2.984374 3.996094 1.699219 8.144531 2.824219 12.453125 3.382813 2.351562.285156 4.707031.378906 7.074219.289063 1.054687.035156 2.109374.035156 3.167968 0 5.050782-.199219 9.929688-1.214844 14.636719-3.054688 2.332031-.894531 4.601563-1.945312 6.851563-3.050781 1.082031-.539063 2.757812-.996094 3.625-1.976563.421874.042969.925781-.117187 1.601562-.558594 2.4375-1.601562 4.699219-3.414062 6.792969-5.441406 4.402343-4.230468 7.898437-9.101562 10.492187-14.613281 1.261719-2.695313 2.371094-5.535156 2.980469-8.449219.609375-3.160156.253906-6.316406-.253906-9.480468zm-16.875 35.492187c-.796875.707031-1.652344 1.335937-2.566407 1.882813.878907-.59375 1.734376-1.222657 2.566407-1.882813zm-59.835938 3.863281 1.402344.707032c-.476563-.222657-.957031-.457032-1.394531-.707032zm0 0" fill="#fff"/><path d="m138.660156 157.007812c-.09375-3-.183594-6.007812-.273437-9.015624-.082031-2.644532-.398438-5.726563-2.65625-7.128907l.597656-.136719c-3.25.289063-6.035156 2.570313-7.683594 5.359376-1.644531 2.789062-2.304687 6.03125-2.757812 9.230468-.640625 4.511719-.910157 9.191406.429687 13.546875.519532 1.558594 1.152344 3.074219 1.898438 4.546875.988281 2.054688 2.417968 4.359375 4.703125 4.550782 1.582031.132812 3.089843-.878907 3.953125-2.199219.863281-1.324219 1.195312-2.917969 1.417968-4.480469.660157-4.71875.511719-9.507812.371094-14.273438zm0 0" fill="#415584"/><path d="m249.246094 155.316406c-.457032-3.199218-1.117188-6.445312-2.761719-9.230468-1.648437-2.785157-4.441406-5.070313-7.679687-5.359376l.597656.136719c-2.257813 1.402344-2.578125 4.484375-2.660156 7.128907-.089844 3.007812-.179688 6.011718-.269532 9.015624-.144531 4.765626-.289062 9.554688.386719 14.277344.222656 1.5625.542969 3.15625 1.414063 4.480469.875 1.324219 2.375 2.332031 3.953124 2.199219 2.289063-.191406 3.714844-2.492188 4.707032-4.550782.746094-1.46875 1.375-2.984374 1.894531-4.546874 1.328125-4.359376 1.054687-9.050782.417969-13.550782zm0 0" fill="#415584"/><path d="m130.980469 130.019531c-.527344-1.691406-2.277344-2.59375-3.972657-2.316406-.253906.023437-.414062.160156-.480468.402344h-.050782c-2.183593-.191407-2.242187 2.503906-1.683593 3.945312.640625 1.664063 2.351562 2.667969 4.101562 2.003907 1.5625-.601563 2.59375-2.410157 2.085938-4.035157zm0 0" fill="#ff6724"/><path d="m250.9375 130.019531c-.523438-1.691406-2.277344-2.59375-3.972656-2.316406-.253906.023437-.414063.160156-.480469.402344h-.050781c-2.183594-.191407-2.238282 2.503906-1.683594 3.945312.640625 1.664063 2.351562 2.667969 4.101562 2.003907 1.5625-.601563 2.59375-2.410157 2.085938-4.035157zm0 0" fill="#ff6724"/><path d="m187.140625 93.28125c-.042969-.46875-.511719-.894531-1.003906-.539062-2.433594 1.710937-3.96875 4.550781-3.570313 7.566406.039063.34375.113282.675781.226563 1.003906.109375.328125.253906.640625.433593.933594.179688.296875.390626.570312.628907.820312.242187.25.503906.46875.792969.664063.289062.191406.59375.351562.917968.476562.324219.125.65625.214844 1 .269531.34375.050782.6875.070313 1.035156.046876.347657-.023438.6875-.078126 1.019532-.175782 6.082031-1.613281 5.234375-12.03125-1.480469-11.066406zm0 0" fill="#ff6724"/><path d="m160.441406 189.140625c-3.25 4.359375-6.4375 8.78125-8.125 14.007813-.269531.847656 1.066406 1.210937 1.339844.367187 1.644531-5.117187 4.792969-9.429687 7.976562-13.683594.535157-.707031-.667968-1.398437-1.191406-.691406zm0 0" fill="#b3b3b3"/><path d="m139.082031 155.519531c.960938-1.71875 1.9375-3.425781 2.9375-5.117187.597657-1.003906.890625-1.820313 2.125-2.117188 1.015625-.246094 2.199219-.226562 3.246094-.335937.878906-.089844.890625-1.46875 0-1.378907-1.648437.171876-4.328125-.160156-5.445313 1.285157-1.59375 2.089843-2.78125 4.683593-4.0625 6.96875-.429687.777343.765626 1.472656 1.199219.695312zm0 0" fill="#b3b3b3"/><path d="m143.625 184.792969c1.285156-.863281 2.550781-1.828125 3.96875-2.457031 1.625-.726563 3.285156-.65625 5.03125-.496094.890625.082031.882812-1.296875 0-1.378906-3.839844-.351563-6.09375.761718-9.101562 2.742187-1.960938-3.597656-3.203126-7.425781-3.722657-11.488281-.109375-.867188-1.496093-.875-1.386719 0 .566407 4.558594 1.988282 8.832031 4.257813 12.828125.101563.164062.242187.269531.425781.316406.183594.050781.359375.027344.527344-.066406zm0 0" fill="#b3b3b3"/><path d="m214.804688 189.140625c-.527344-.707031-1.730469-.019531-1.195313.695313 3.183594 4.261718 6.332031 8.570312 7.976563 13.683593.269531.839844 1.613281.480469 1.339843-.371093-1.671875-5.226563-4.863281-9.648438-8.121093-14.007813zm0 0" fill="#b3b3b3"/><path d="m237.355469 154.820312c-1.277344-2.289062-2.460938-4.878906-4.0625-6.96875-1.105469-1.441406-3.808594-1.117187-5.445313-1.28125-.886718-.09375-.882812 1.285157 0 1.378907.960938.097656 1.96875.117187 2.917969.300781 1.457031.269531 1.746094.960938 2.4375 2.15625 1.003906 1.691406 1.980469 3.394531 2.9375 5.117188.449219.773437 1.648437.078124 1.214844-.703126zm0 0" fill="#b3b3b3"/><path d="m235.441406 171.714844c-.519531 4.0625-1.761718 7.890625-3.722656 11.488281-3.007812-1.980469-5.261719-3.09375-9.101562-2.742187-.882813.082031-.890626 1.460937 0 1.378906 1.746093-.160156 3.394531-.234375 5.027343.496094 1.421875.636718 2.691407 1.59375 3.976563 2.457031.164062.09375.339844.117187.523437.070312.183594-.050781.328125-.15625.421875-.320312 2.277344-3.992188 3.695313-8.269531 4.261719-12.828125.113281-.875-1.277344-.855469-1.386719 0zm0 0" fill="#b3b3b3"/><path d="m196.34375 206.6875c-.058594-.179688-.167969-.3125-.332031-.40625-.164063-.09375-.335938-.117188-.519531-.078125-2.519532.34375-5.046876.398437-7.582032.152344-.085937-.027344-.175781-.035157-.269531-.023438h-.042969c-.09375-.011719-.183594-.003906-.269531.023438-2.535156.246093-5.0625.191406-7.582031-.152344-.183594-.042969-.355469-.015625-.519532.078125-.164062.089844-.277343.226562-.332031.40625l-2.953125 6.976562c-.347656.804688.996094 1.171876 1.339844.363282l2.707031-6.417969c2.539063.320313 5.082031.355469 7.632813.101563 2.550781.25 5.097656.214843 7.640625-.109376.902343 2.144532 1.804687 4.28125 2.707031 6.417969.34375.808594 1.683594.453125 1.335938-.363281zm0 0" fill="#b3b3b3"/><path d="m235.316406 186.042969c-.632812.464843-1.816406 1.734375-2.566406 1.886719-1.152344.230468-2.042969-.828126-2.910156-1.453126-.101563-.054687-.179688-.035156-.238282.0625-2.203124 3.632813-4.558593 7.152344-8.152343 9.585938-.101563.058594-.121094.136719-.0625.234375 1.195312 1.597656 2.066406 3.351563 2.605469 5.269531.019531.066406.066406.105469.136718.117188.066406.011718.125-.007813.167969-.066406l.097656.074218c-.074219.089844-.066406.171875.023438.246094.089843.074219.171875.066406.246093-.023438 2.394532-2.289062 4.496094-4.816406 6.304688-7.585937 1.652344-2.542969 3.660156-5.265625 4.605469-8.148437.027343-.136719-.136719-.296876-.257813-.199219zm0 0" fill="#b3b3b3"/><path d="m232.015625 144.160156c.472656.4375 1.292969.613282 1.859375.949219.914062.550781 1.738281 1.214844 2.472656 1.984375.046875.046875.101563.0625.167969.046875.0625-.019531.105469-.058594.121094-.121094.351562-2.175781 1.132812-4.46875.234375-6.589843-1.175782-2.789063-3.0625-5.386719-4.894532-7.789063-.078124-.109375-.167968-.121094-.273437-.039063l-.5-.589843c0-.074219 0-.148438-.011719-.21875-.019531-.222657-.363281-.222657-.347656 0 .234375 3.726562.269531 7.523437.714844 11.230469.085937.644531.035156.746093.457031 1.136718zm0 0" fill="#b3b3b3"/><path d="m153.9375 196.125c-3.582031-2.421875-5.953125-5.953125-8.152344-9.59375-.058594-.097656-.136718-.117188-.238281-.0625-.867187.628906-1.753906 1.6875-2.910156 1.457031-.75-.148437-1.933594-1.417969-2.566407-1.886719-.121093-.089843-.296874.058594-.253906.195313.957032 2.890625 2.953125 5.609375 4.601563 8.148437 1.8125 2.769532 3.914062 5.296876 6.308593 7.589844.074219.089844.15625.097656.246094.023438.089844-.074219.097656-.15625.023438-.246094l.097656-.074219c.042969.054688.101562.078125.167969.0625.070312-.011719.117187-.050781.136719-.117187.539062-1.914063 1.40625-3.671875 2.605468-5.265625.050782-.097657.03125-.171875-.066406-.230469zm0 0" fill="#b3b3b3"/><path d="m139.039062 147.09375c.652344-.683594 1.375-1.285156 2.167969-1.804688.5625-.355468 1.417969-.539062 1.921875-.964843.664063-.539063.585938-.390625.691406-1.300781.429688-3.707032.476563-7.507813.714844-11.230469.015625-.222657-.332031-.222657-.347656 0v.21875l-.519531.597656c-.101563-.082031-.191407-.070313-.269531.039063-1.820313 2.386718-3.707032 4.992187-4.882813 7.773437-.898437 2.121094-.117187 4.410156.234375 6.589844.015625.0625.054688.105469.121094.125.0625.019531.121094.003906.167968-.042969zm0 0" fill="#b3b3b3"/><path d="m187.824219 111.367188v-.042969l-.199219.019531-.214844-.015625v.046875c-3.355468.382812-26.890625 3.566406-40.175781 17.464844l1.402344 37.617187s.292969 18.140625 3.988281 21.667969c3.695312 3.523438 23.132812 8.617188 34.738281 8.730469h.511719c11.605469-.113281 31.078125-5.246094 34.738281-8.730469 3.65625-3.488281 3.988281-21.667969 3.988281-21.667969l1.402344-37.617187c-13.285156-13.898438-36.820312-17.082032-40.179687-17.472656zm0 0" fill="#415584"/><path d="m221.6875 142.628906c-.015625-.824218-.136719-1.632812-.363281-2.425781-.578125-1.738281-2.132813-3.015625-3.832031-3.707031-1.703126-.695313-3.558594-.894532-5.390626-1.078125-.550781-.101563-1.101562-.078125-1.640624.070312-.953126.339844-1.449219 1.347657-1.855469 2.273438-1.839844 4.167969-3.828125 8.335937-6.734375 11.851562-2.90625 3.519531-6.84375 6.375-11.347656 7.167969-1.003907.175781-4.804688.175781-5.804688 0-4.507812-.792969-8.445312-3.648438-11.351562-7.167969-2.90625-3.515625-4.894532-7.683593-6.734376-11.851562-.40625-.917969-.902343-1.933594-1.851562-2.273438-.542969-.148437-1.089844-.171875-1.644531-.070312-1.832031.1875-3.6875.382812-5.386719 1.078125-1.703125.691406-3.25 1.96875-3.835938 3.707031-.226562.792969-.347656 1.601563-.363281 2.425781-.628906 10.914063-.417969 21.8125.632813 32.695313.25 2.585937.566406 5.234375 1.738281 7.554687 1.175781 2.324219 3.390625 4.292969 6 4.464844 1.699219.375 16.929687 4.253906 22.40625 4.390625 1.113281.03125 5.46875.03125 6.582031 0 5.476563-.136719 20.707032-4.015625 22.40625-4.390625 2.609375-.171875 4.824219-2.152344 6-4.464844 1.171875-2.3125 1.488282-4.96875 1.738282-7.554687 1.050781-10.882813 1.261718-21.78125.632812-32.695313zm0 0" fill="#263151"/><path d="m246.277344 173.53125c-.105469.066406-.207032.136719-.300782.210938-.9375.28125-1.339843-.011719-1.210937-.878907-.039063-.402343-.050781-.808593-.035156-1.214843.046875-.464844.089843-.929688.121093-1.394532v-.027344c.296876-4.484374-.289062-8.992187-1.367187-13.414062-.023437-.082031-.078125-.125-.167969-.125-.085937 0-.140625.042969-.164062.125-.40625 2.230469-.886719 4.441406-1.480469 6.628906-.027344.089844-.046875.195313-.070313.308594-.347656.460938-.777343.609375-1.355468-.199219-.175782-.285156-.277344-.597656-.308594-.933593-.027344-.351563-.046875-.699219-.066406-1.046876 0-.308593-.019532-.617187-.050782-.925781-.011718-.238281-.027343-.46875-.050781-.679687-.34375-3.308594-.621093-6.617188-1.082031-9.902344-.167969-2.546875.035156-5.066406.601562-7.554688.050782-.214843-.273437-.308593-.335937-.09375-.121094.5-.21875 1-.304687 1.5l-.191407.582032c-.046875-.019532-.089843-.015625-.136719.003906-.042968.023438-.070312.058594-.082031.109375-.121093.492187-.222656 1.003906-.308593 1.519531-.054688-.011718-.105469 0-.152344.03125-.042969.03125-.070313.074219-.078125.132813-.898438 9.375-.855469 18.75.121093 28.121093.269532 2.394532 1.011719 3.878907 3.628907 3.824219.777343-.015625 1.21875 0 1.679687-.628906.089844-.128906.164063-.265625.21875-.410156.039063.054687.089844.097656.148438.132812.46875.234375 1.238281-.699219 1.496094-.957031.742187-.730469 1.515624-1.613281 1.546874-2.691406-.003906-.066406-.03125-.117188-.089843-.148438-.054688-.035156-.113281-.035156-.171875-.003906zm0 0" fill="#263151"/><path d="m137.863281 146.285156c-.019531-.136718-.097656-.191406-.230469-.164062-.085937-.515625-.183593-1.027344-.304687-1.519532-.011719-.046874-.039063-.082031-.085937-.105468-.042969-.023438-.089844-.023438-.136719-.003906l-.1875-.585938c-.085938-.496094-.183594-1-.304688-1.496094-.054687-.214844-.390625-.125-.335937.089844.5625 2.488281.761718 5 .597656 7.542969-.46875 3.285156-.746094 6.597656-1.082031 9.90625-.121094 1.160156-.253907 2.320312-.40625 3.476562-.023438.039063-.046875.078125-.070313.117188-.542968.78125-.972656.664062-1.316406.230469-.640625-2.296876-1.152344-4.625-1.578125-6.972657-.023437-.082031-.082031-.121093-.167969-.121093-.085937 0-.140625.039062-.167968.121093-1.082032 4.425781-1.65625 8.929688-1.351563 13.414063v.019531c.03125.464844.074219.925781.125 1.390625.015625.40625 0 .8125-.042969 1.21875.132813.863281-.269531 1.15625-1.203125.878906-.097656-.078125-.199219-.148437-.304687-.210937-.058594-.039063-.121094-.042969-.183594-.007813-.0625.03125-.089844.085938-.089844.15625.027344 1.015625.710938 1.824219 1.394532 2.53125.25.269532 1.144531 1.363282 1.648437 1.113282.058594-.035157.109375-.078126.148437-.128907.054688.148438.128907.289063.222657.417969.464843.621094.90625.613281 1.679687.632812 2.605469.050782 3.375-1.433593 3.628906-3.828124.972657-9.367188 1.007813-18.738282.105469-28.113282zm0 0" fill="#263151"/><path d="m164.757812 130.992188c-.132812-.804688-.203124-2.960938-1.027343-3.410157-.765625-.425781-3.570313 1-4.320313 1.257813-1.578125.539062-4.058594 1.011718-5.378906 2.035156-.894531.695312-.714844 1.773438-.617188 2.859375-.039062.300781-.023437.59375.039063.886719.023437.085937.078125.128906.167969.128906 1.585937.15625 3.609375-1.394531 5.144531-1.792969 2.011719-.539062 4.023437-.878906 5.917969-1.769531.074218-.046875.097656-.109375.074218-.195312zm0 0" fill="#263151"/><path d="m153.496094 129.316406c.941406-.5 1.917968-.921875 2.929687-1.261718l1.554688-.496094c1.808593-.539063 3.664062-.992188 5.347656-1.527344.113281-.03125.152344-.101562.121094-.210938-.257813-.679687-.570313-1.332031-.945313-1.953124-.058594-.09375-.136718-.113282-.234375-.0625-2.542969 1.152343-5.089843 2.304687-7.605469 3.519531-.765624.371093-1.863281.746093-1.335937 1.691406-.203125.113281-.03125.410156.167969.300781zm0 0" fill="#263151"/><path d="m222.007812 131.027344c-.492187-.492188-1.527343-.675782-2.164062-.917969-1.140625-.445313-2.289062-.867187-3.445312-1.265625-.796876-.269531-3.519532-1.675781-4.296876-1.265625-.847656.4375-.921874 2.65625-1.050781 3.421875-.023437.082031.003907.148438.078125.191406 1.898438.894532 3.910156 1.242188 5.921875 1.769532 1.539063.402343 3.535157 1.953124 5.144531 1.792968.089844 0 .144532-.042968.167969-.125.0625-.289062.074219-.578125.039063-.871094.089844-.957031.25-2.082031-.394532-2.730468zm0 0" fill="#263151"/><path d="m222.492188 129.023438c.539062-.945313-.574219-1.328126-1.335938-1.695313-2.519531-1.210937-5.058594-2.367187-7.601562-3.519531-.097657-.050782-.179688-.03125-.238282.0625-.371094.625-.6875 1.277344-.945312 1.953125-.027344.109375.011718.179687.121094.214843 1.6875.535157 3.542968.980469 5.351562 1.523438l1.550781.496094c1.011719.34375 1.988281.765625 2.929688 1.265625.1875.101562.363281-.195313.167969-.300781zm0 0" fill="#263151"/><path d="m133.011719 141.117188c-7.957031 4.878906-10.132813 14.546874-7.851563 23.136718.027344.128906.097656.230469.207032.308594.109374.074219.230468.105469.359374.089844-.03125.65625-.046874 1.3125-.042968 1.972656 0 .726562 1.136718.730469 1.136718 0-.054687-4.902344.9375-9.589844 2.976563-14.054688.847656-1.832031 2.007813-3.503906 2.867187-5.316406.859376-1.816406 1.144532-3.675781 1.1875-5.65625-.003906-.101562-.03125-.191406-.082031-.273437-.050781-.085938-.117187-.152344-.203125-.199219-.085937-.050781-.179687-.074219-.277344-.078125-.097656 0-.191406.023437-.277343.070313zm0 0" fill="#fff"/><path d="m242.46875 141.117188c-.085938-.050782-.183594-.074219-.28125-.074219-.101562 0-.195312.023437-.285156.074219-.085938.050781-.15625.121093-.207032.207031-.050781.085937-.078124.179687-.078124.28125.042968 1.972656.34375 3.84375 1.191406 5.65625.847656 1.808593 2.015625 3.484375 2.867187 5.316406 2.035157 4.464844 3.027344 9.152344 2.976563 14.054687 0 .730469 1.128906.726563 1.132812 0 0-.65625-.011718-1.316406-.042968-1.972656.128906.015625.25-.015625.359374-.089844.109376-.074218.179688-.179687.207032-.308593 2.292968-8.589844.121094-18.265625-7.839844-23.144531zm0 0" fill="#fff"/><path d="m166.058594 119.328125c-.65625-1.5-1.121094-3.417969-3.105469-2.730469-2.390625.808594-4.738281 2.304688-6.878906 3.617188-3.652344 2.242187-9.175781 5.117187-9.128907 9.980468 0 .160157.058594.292969.175782.398438.117187.109375.257812.15625.414062.140625-.085937.105469-.171875.207031-.269531.3125-.457031.5625.339844 1.363281.8125.808594 2.226563-2.765625 4.84375-5.101563 7.851563-7.003907 3.097656-1.9375 6.574218-3.285156 9.925781-4.75.300781-.136718.3125-.519531.203125-.773437zm0 0" fill="#fff"/><path d="m228.625 130.1875c.046875-4.878906-5.472656-7.742188-9.128906-9.984375-2.136719-1.3125-4.484375-2.792969-6.875-3.613281-1.984375-.683594-2.4375 1.230468-3.105469 2.726562-.113281.253906-.097656.640625.203125.773438 3.347656 1.476562 6.824219 2.804687 9.933594 4.753906 3.007812 1.902344 5.625 4.238281 7.851562 7.003906.460938.566406 1.261719-.238281.8125-.808594l-.269531-.3125c.15625.011719.292969-.035156.410156-.144531.113281-.105469.171875-.238281.167969-.394531zm0 0" fill="#fff"/><path d="m209.882812 115.839844c-6-1.53125-12.078124-2.648438-18.230468-3.359375-.085938-.207031-.21875-.367188-.410156-.484375-.304688-.136719-.621094-.175782-.949219-.125-.882813.058594-1.769531.132812-2.652344.207031-.886719-.074219-1.769531-.148437-2.65625-.207031-.328125-.050782-.640625-.011719-.945313.125-.191406.117187-.328124.277344-.410156.484375-6.152344.710937-12.230468 1.828125-18.230468 3.359375l-.875.238281c1.121093 4.332031 3.710937 8.125 5.414062 12.265625 1.40625 3.433594 2.1875 7.082031 3.292969 10.625 1.109375 3.539062 2.597656 7.0625 5.144531 9.761719 1.820312 1.90625 3.984375 3.269531 6.5 4.085937.847656.273438 1.710938.476563 2.59375.597656.046875.015626.09375.015626.140625 0 .980469-.128906 1.941406-.339843 2.886719-.632812 2.472656-.8125 4.609375-2.160156 6.40625-4.039062 2.554687-2.695313 4.042968-6.222657 5.144531-9.761719 1.101563-3.539063 1.894531-7.1875 3.296875-10.625 1.695312-4.140625 4.285156-7.933594 5.414062-12.261719zm0 0" fill="#fff"/><path d="m153.859375 107.367188c-2.433594 1.09375-4.984375 2.078124-7.222656 3.550781-2.023438 1.347656-3.789063 3.007812-5.550781 4.664062-1.296876 1.230469.667968 3.175781 1.957031 1.953125 1.769531-1.675781 3.546875-3.375 5.652343-4.644531 2.105469-1.265625 4.367188-2.152344 6.574219-3.140625 1.613281-.730469.207031-3.109375-1.410156-2.382812zm0 0" fill="#263151"/><path d="m132.261719 112.363281c1.472656-1.863281 3.089843-3.59375 4.847656-5.191406 1.753906-1.601563 3.632813-3.046875 5.628906-4.339844 1.996094-1.292969 4.082031-2.417969 6.261719-3.371093 2.183594-.949219 4.425781-1.722657 6.734375-2.308594 1.726563-.4375.996094-3.101563-.738281-2.660156-2.421875.613281-4.78125 1.417968-7.074219 2.417968-2.289063.996094-4.488281 2.171875-6.585937 3.523438-2.097657 1.355468-4.074219 2.867187-5.925782 4.542968-1.851562 1.675782-3.554687 3.488282-5.105468 5.4375-1.101563 1.378907.851562 3.339844 1.957031 1.949219zm0 0" fill="#263151"/><path d="m251.648438 133.070312c.972656-1.324218.921874-2.980468.234374-4.347656-.039062-.136718-.097656-.265625-.171874-.386718-.148438-.210938-.304688-.410157-.480469-.601563-.460938-.554687-1.023438-.980469-1.683594-1.273437-.144531-.0625-.292969-.101563-.449219-.117188-.761718-.257812-1.535156-.304688-2.324218-.136719-.789063.167969-1.476563.523438-2.066407 1.070313-2.097656 1.882812-2.203125 5.523437.121094 7.25.035156.023437.070313.042968.105469.066406-.492188 1.828125-1.015625 3.65625-1.425782 5.503906-.53125-.265625-1.089843-.457031-1.675781-.566406-1.269531-.253906-2.457031-.039062-3.558593.636719-1.941407-5.023438-5.320313-9.496094-9.265626-13.296875-.058593-.066406-.121093-.125-.191406-.179688-1.871094-1.78125-3.859375-3.425781-5.953125-4.941406-9.847656-7.167969-21.808593-10.742188-33.929687-11.132812.109375-1.546876.128906-3.09375.0625-4.640626 0-.027343 0-.050781 0-.078124.710937-.140626 1.382812-.378907 2.019531-.722657 3.28125-1.753906 4.226563-6.132812 2.527344-9.316406-1.800781-3.359375-6.324219-4.882813-9.523438-2.503906-.015625 0-.027343.023437-.042969.035156-.667968.46875-1.246093 1.035156-1.722656 1.695313-.480468.664062-.835937 1.386718-1.070312 2.167968s-.332032 1.582032-.292969 2.394532c.035156.816406.207031 1.605468.511719 2.363281.414062 1.019531 1.050781 1.875 1.90625 2.570312.859375.695313 1.832031 1.140625 2.917968 1.339844v.0625c.066407 1.550781.046876 3.097656-.0625 4.644531-12.035156.433594-23.890624 4.007813-33.679687 11.121094-2.085937 1.515625-4.066406 3.160156-5.9375 4.933594-.074219.054687-.140625.117187-.199219.1875-3.933594 3.800781-7.308594 8.261718-9.246094 13.28125-.625-.375-1.300781-.601563-2.027343-.671875-1.136719-.109375-2.207031.101562-3.21875.632812-.410157-1.847656-.933594-3.679687-1.425781-5.507812.035156-.023438.070312-.042969.105468-.066407 2.34375-1.742187 2.195313-5.332031.121094-7.25-.585938-.554687-1.277344-.914062-2.066406-1.078124-.789063-.167969-1.566406-.121094-2.328125.144531-.15625.015625-.300781.054687-.445313.117187-.664062.296875-1.226562.722656-1.691406 1.285156-.171875.183594-.328125.382813-.472656.589844-.074219.121094-.132813.25-.171875.386719-.6875 1.363281-.738281 3.023437.234375 4.347656.976562 1.324219 2.503906 2.25 4.0625 2.320313.585937 2.171875 1.226562 4.347656 1.644531 6.5625-.277344.28125-.539063.574218-.785156.882812-3.464844 4.441406-4.738281 10.585938-4.90625 16.078125-.105469 3.542969.3125 7.027344 1.253906 10.449219.792969 2.855469 2.125 7.539062 4.667969 9.308594 1.964844 1.371094 4.332031 1.480468 6.449218.601562 1.351563 6.304688 4.601563 12.347656 8.433594 17.429688 2.898438 3.890625 6.28125 7.308594 10.148438 10.257812 3.863281 2.945313 8.0625 5.308594 12.59375 7.082032 6.464844 2.511718 13.386718 3.585937 20.304687 3.625h.105469.105469c11.453125-.066407 22.765625-3.191407 32.035156-10.027344 3.527344-2.597656 6.683594-5.585938 9.46875-8.960938 2.785156-3.378906 5.113281-7.039062 6.984375-10.992187 1.300781-2.671875 2.292969-5.457031 2.980469-8.347657 1.449219.566407 3.214843.675782 4.402343.339844 3.414063-.964844 4.691407-4.582031 5.835938-7.578125 1.273438-3.40625 1.980469-6.925781 2.125-10.554687.269531-5.84375-.777344-12.324219-3.941406-17.359375-.5-.804688-1.070313-1.550781-1.71875-2.246094.417968-2.207031 1.0625-4.382813 1.644531-6.554687 1.53125-.078126 3.042969-.972657 4.039063-2.328126zm-3.4375-4.195312c.914062.417969 1.753906 1.320312 1.285156 2.421875-.398438.9375-1.765625 1.664063-2.71875 1.203125-2.070313-1-.28125-4.035156 1.433594-3.625zm-63.910157-27.242188c-1.082031-1.6875-.726562-4.390624.8125-5.730468.105469-.042969.203125-.097656.296875-.167969 4.171875-3.101563 8.683594 3.941406 4.679688 6.769531-1.78125 1.265625-4.574219 1.015625-5.789063-.871094zm-58.378906 29.796876c-.574219-1.113282.269531-2.113282 1.234375-2.558594 1.710938-.402344 3.492188 2.632812 1.429688 3.628906-.917969.445312-2.214844-.191406-2.664063-1.070312zm2.898437 40.617187c-1.246093-3.085937-1.996093-6.292969-2.253906-9.609375-.253906-3.320312 0-6.597656.757813-9.839844.558593-2.378906 1.367187-4.734375 2.648437-6.828125.472656-.820312 1.046875-1.558593 1.726563-2.214843.121093-.109376.25-.210938.386719-.300782-.542969 2.046875-.761719 7.457032-.15625 7.542969.746093.097656 2.574218-6.113281 3.296874-8.449219.265626.003906.515626.070313.746094.210938.230469.136718.410156.320312.539063.558594.042969.433593.085937.867187.128906 1.300781-.027344.214843-.003906.425781.058594.632812.632812 6.523438.824219 13.0625.566406 19.613281-.082031 1.800782-.210937 3.605469-.394531 5.402344-.117188 1.105469-.25 2.214844-.425782 3.316406-.105468.695313-.089843 2.074219-.484374 2.667969-.316407.472657-1.105469.808594-1.894532.96875-.839844-3.203125-2.042968-11.078125-2.738281-11.082031-.691406 0-.980469 7.246094-.339844 10.136719-1.046875-1.09375-1.667969-2.8125-2.167969-4.027344zm78.269532 39.457031c-6.175782 2.351563-12.707032 3.378906-19.300782 3.417969-.039062 0-.070312 0-.109374 0-.035157 0-.066407 0-.105469 0-11-.0625-21.746094-3.082031-30.636719-9.652344-3.347656-2.5-6.339844-5.367187-8.972656-8.605469-2.632813-3.242187-4.824219-6.75-6.578125-10.535156-1.355469-2.835937-2.308594-5.796875-2.871094-8.886718.972656-1.960938.882813-5.039063 1.082031-6.8125 1.003906-9.289063.59375-18.734376-.378906-28.015626 1.328125-4.132812 3.789062-7.917968 6.769531-11.246093-.132812 11.324219 1.839844 35.234375 2.507813 35.265625.722656.035156.070312-25.859375.308594-38.128906 4.445312-4.152344 9.457031-7.449219 15.03125-9.902344 2.8125 8.078125 10.128906 25.050781 10.789062 24.894531s-5.382812-17.78125-8.234375-25.957031c6.855469-2.59375 13.953125-3.925782 21.289063-3.992188 7.339843.070313 14.433593 1.40625 21.289062 4.007813-2.851562 8.1875-8.949219 25.761719-8.277344 25.945312.671875.183594 8.019532-16.808593 10.828125-24.882812 5.574219 2.453125 10.585938 5.753906 15.03125 9.902343.238281 12.277344-.539062 38.085938.121094 38.128907.726563.046875 2.828125-23.941407 2.695313-35.265625 2.980468 3.328125 5.441406 7.113281 6.769531 11.25-.867188 8.273437-1.253907 16.652344-.652344 24.960937.128906 1.761719.308594 3.515625.539063 5.269531.195312 1.394532.226562 3.191407.8125 4.554688-2.527344 15.3125-15.582032 28.875-29.746094 34.285156zm40.949218-58.90625c.757813 3.242188 1.011719 6.519532.757813 9.839844-.257813 3.320312-1.007813 6.523438-2.257813 9.609375-.492187 1.203125-1.125 2.917969-2.148437 4.011719.640625-2.886719.246094-10.183594-.496094-10.113282-.640625.0625-1.746093 7.871094-2.585937 11.074219-.8125-.148437-1.589844-.496093-1.90625-.96875-.8125-1.226562-.714844-4.195312-.871094-5.609375-.203125-1.921875-.34375-3.847656-.433594-5.777344-.257812-6.554687-.070312-13.097656.558594-19.628906.066406-.203125.085938-.414062.0625-.625.039062-.4375.085938-.871094.128906-1.308594.128906-.234374.308594-.417968.539063-.554687s.480469-.207031.75-.207031c.722656 2.335937 2.550781 8.546875 3.296875 8.449218.605468-.078124.382812-5.488281-.15625-7.542968.136718.089844.265625.191406.386718.300781.679688.65625 1.253907 1.394531 1.726563 2.214844 1.277344 2.101562 2.089844 4.457031 2.648437 6.835937zm0 0" fill="#263151"/><path d="m221.503906 107.367188c-1.625-.722657-3.027344 1.652343-1.402344 2.382812 2.207032.988281 4.503907 1.882812 6.574219 3.140625 2.070313 1.257813 3.875 2.964844 5.644531 4.644531 1.289063 1.222656 3.246094-.722656 1.957032-1.953125-1.753906-1.65625-3.519532-3.332031-5.550782-4.664062-2.238281-1.472657-4.789062-2.457031-7.222656-3.550781zm0 0" fill="#263151"/><path d="m219.628906 97.152344c2.308594.589844 4.550782 1.359375 6.730469 2.3125s4.265625 2.074218 6.261719 3.367187 3.871094 2.742188 5.628906 4.339844c1.753906 1.597656 3.371094 3.328125 4.839844 5.191406 1.105468 1.394531 3.058594-.570312 1.960937-1.949219-1.550781-1.949218-3.253906-3.761718-5.105469-5.4375-1.847656-1.671874-3.824218-3.1875-5.921874-4.539062-2.097657-1.355469-4.292969-2.53125-6.585938-3.527344-2.289062-.996094-4.648438-1.804687-7.070312-2.417968-1.722657-.4375-2.460938 2.21875-.738282 2.660156zm0 0" fill="#263151"/><path d="m172.289062 164.859375c0 .746094-.046874 1.488281-.144531 2.21875-.097656.734375-.242187 1.445313-.433593 2.136719-.1875.6875-.421876 1.34375-.699219 1.964844-.277344.625-.59375 1.199218-.945313 1.726562-.351562.527344-.734375 1-1.148437 1.414062-.414063.417969-.851563.765626-1.3125 1.054688-.460938.285156-.933594.5-1.425781.644531-.488282.148438-.980469.21875-1.480469.21875-.496094 0-.988281-.070312-1.480469-.21875-.488281-.144531-.960938-.359375-1.421875-.644531-.460937-.289062-.898437-.636719-1.3125-1.054688-.414063-.414062-.796875-.886718-1.148437-1.414062-.351563-.527344-.667969-1.101562-.945313-1.726562-.277344-.621094-.511719-1.277344-.699219-1.964844-.191406-.691406-.335937-1.402344-.433594-2.136719-.097656-.730469-.144531-1.472656-.144531-2.21875s.046875-1.488281.144531-2.222656c.097657-.730469.242188-1.441407.433594-2.132813.1875-.691406.421875-1.347656.699219-1.96875s.59375-1.195312.945313-1.722656c.351562-.53125.734374-1 1.148437-1.417969.414063-.414062.851563-.765625 1.3125-1.050781s.933594-.5 1.421875-.648438c.492188-.144531.984375-.21875 1.480469-.21875.5 0 .992187.074219 1.480469.21875.492187.148438.964843.363282 1.425781.648438.460937.285156.898437.636719 1.3125 1.050781.414062.417969.796875.886719 1.148437 1.417969.351563.527344.667969 1.101562.945313 1.722656.277343.621094.511719 1.277344.699219 1.96875.191406.691406.335937 1.402344.433593 2.132813.097657.734375.144531 1.476562.144531 2.222656zm0 0" fill="#9dfff2"/><path d="m218.25 164.859375c0 .746094-.046875 1.488281-.144531 2.21875-.097657.734375-.242188 1.445313-.433594 2.136719-.1875.6875-.421875 1.34375-.699219 1.964844-.277344.625-.59375 1.199218-.945312 1.726562-.351563.527344-.734375 1-1.148438 1.414062-.414062.417969-.851562.765626-1.3125 1.054688-.460937.285156-.933594.5-1.421875.644531-.492187.148438-.984375.21875-1.480469.21875-.5 0-.992187-.070312-1.484374-.21875-.488282-.144531-.960938-.359375-1.421876-.644531-.460937-.289062-.898437-.636719-1.3125-1.054688-.414062-.414062-.796874-.886718-1.148437-1.414062s-.667969-1.101562-.945313-1.726562c-.277343-.621094-.511718-1.277344-.699218-1.964844-.191406-.691406-.335938-1.402344-.433594-2.136719-.097656-.730469-.144531-1.472656-.144531-2.21875s.046875-1.488281.144531-2.222656c.097656-.730469.242188-1.441407.433594-2.132813.1875-.691406.421875-1.347656.699218-1.96875.277344-.621094.59375-1.195312.945313-1.722656.351563-.53125.734375-1 1.148437-1.417969.414063-.414062.851563-.765625 1.3125-1.050781.460938-.285156.933594-.5 1.421876-.648438.492187-.144531.984374-.21875 1.484374-.21875.496094 0 .988282.074219 1.480469.21875.488281.148438.960938.363282 1.421875.648438.460938.285156.898438.636719 1.3125 1.050781.414063.417969.796875.886719 1.148438 1.417969.351562.527344.667968 1.101562.945312 1.722656s.511719 1.277344.699219 1.96875c.191406.691406.335937 1.402344.433594 2.132813.097656.734375.144531 1.476562.144531 2.222656zm0 0" fill="#9dfff2"/><path d="m197.539062 118.214844c-1.328124-.65625-2.957031-.808594-4.386718-.984375-2.480469-.304688-4.96875-.375-7.464844-.207031-3.300781.234374-6.578125.683593-9.820312 1.34375-.464844.089843-1.082032.226562-1.734376.367187-.191406.042969-.375.105469-.546874.1875-.175782.082031-.339844.183594-.496094.300781-.152344.117188-.289063.25-.414063.398438-.125.148437-.230469.308594-.316406.480468-.089844.171876-.160156.351563-.207031.539063-.050782.1875-.078125.375-.085938.570313-.003906.191406.007813.382812.042969.570312.035156.191406.089844.375.167969.550781.128906.304688.269531.601563.378906.894531 1.953125 4.746094 3.207031 9.613282 4.292969 14.703126.847656 3.976562 2.527343 8.429687 6.4375 10.046874.191406.078126.34375.035157.464843-.132812.117188-.171875.101563-.328125-.042968-.476562-1.296875-1.328126-3.246094-4.023438-4.574219-9.585938-.5625-2.203125-1.082031-4.417969-1.558594-6.640625-.09375-.460937-.941406-3.996094-1.082031-4.828125-.078125-.863281 0-1.574219.410156-1.859375.195313-.125.40625-.214844.632813-.269531.175781-.039063.351562-.082032.527343-.117188 4.605469-1.125 7.640626-1.140625 12.90625-1.101562 1.445313.015625 2.980469.238281 4.207032-.664063.902344-.65625 1.972656-2.101562 2.5625-2.960937.066406-.09375.109375-.195313.128906-.304688s.015625-.21875-.011719-.328125c-.03125-.109375-.082031-.207031-.152343-.292969-.074219-.085937-.164063-.152343-.265626-.199218zm0 0" fill="#b3b3b3"/><path d="m193.054688 126.335938c-2.585938-.441407-5.1875-.527344-7.800782-.269532-1.238281.109375-4.664062.359375-5.519531 1.402344-.503906.617188.355469 3.871094 1.109375 5.179688.183594.347656.453125.609374.8125.785156.683594 0 .1875-2.421875 3.171875-3.671875 1.328125-.523438 6.382813-.6875 9.160156-.425781.792969.074218 3.273438.226562 2.851563-1.367188-.253906-.953125-3.019532-1.5-3.785156-1.632812zm0 0" fill="#b3b3b3"/><g fill="#263151"><path d="m0 0 8.203125-28h11.5625l8.203125 28h-7.53125l-1.40625-5.59375h-10.09375l-1.40625 5.59375zm10.34375-11.0625h7.28125l-2.953125-11.578125h-1.375zm0 0" transform="translate(111.036822 258.473215)"/><path d="m1.515625 0v-5.359375h3.125l-.078125-17.28125h-3.046875v-5.359375h12.921875v5.359375h-3.078125l-.078125 17.28125h3.15625v5.359375zm0 0" transform="translate(142.799119 258.473215)"/><path d="m1.515625 0v-5.359375h3.125l-.078125-17.28125h-3.046875v-5.359375h12.921875v5.359375h-3.078125l-.078125 17.28125h3.15625v5.359375zm0 0" transform="translate(175.701967 258.473215)"/><path d="m2.65625 0v-28h6.953125l7.21875 17.015625 7.21875-17.015625h6.921875v28h-6.609375v-15.390625l-5.859375 14.171875h-3.34375l-5.890625-14.171875v15.390625zm0 0" transform="translate(195.458714 258.473215)"/><path d="m6.125 0-4.21875-4.21875v-19.5625l4.21875-4.21875h15.65625l4.203125 4.21875v5.15625l-6.90625-.03125v-2.625l-1.375-1.328125h-7.328125l-1.375 1.328125v14.515625l1.375 1.375h5.96875l3.640625-3.234375v-.984375h-5.125v-5.4375h11.546875v15.046875h-6v-2.515625l-2.8125 2.515625zm0 0" transform="translate(232.881853 258.473215)"/><path d="m1.375 0c-.09375 0-.179688-.03125-.25-.09375-.0625-.070312-.09375-.15625-.09375-.25v-9.109375c0-.101563.03125-.1875.09375-.25.070312-.0625.15625-.09375.25-.09375h1.609375c.09375 0 .171875.03125.234375.09375s.09375.148437.09375.25v9.109375c0 .09375-.03125.179688-.09375.25-.0625.0625-.140625.09375-.234375.09375zm0 0" transform="translate(92.221434 280.964542)"/><path d="m1.390625 0c-.105469 0-.195313-.03125-.265625-.09375-.0625-.070312-.09375-.15625-.09375-.25v-9.109375c0-.101563.03125-.1875.09375-.25.070312-.0625.160156-.09375.265625-.09375h1.3125c.132813 0 .238281.039063.3125.109375.070313.074219.117187.132812.140625.171875l2.578125 4.734375 2.59375-4.734375c.019531-.039063.0625-.097656.125-.171875.070313-.070312.179687-.109375.328125-.109375h1.296875c.101563 0 .1875.03125.25.09375.070313.0625.109375.148437.109375.25v9.109375c0 .09375-.039062.179688-.109375.25-.0625.0625-.148437.09375-.25.09375h-1.421875c-.09375 0-.179688-.03125-.25-.09375-.0625-.070312-.09375-.15625-.09375-.25v-5.640625l-1.78125 3.3125c-.03125.085937-.085938.15625-.15625.21875-.074219.0625-.179688.09375-.3125.09375h-.65625c-.125 0-.226562-.03125-.296875-.09375-.074219-.0625-.136719-.132813-.1875-.21875l-1.765625-3.3125v5.640625c0 .09375-.03125.179688-.09375.25-.0625.0625-.148438.09375-.25.09375zm0 0" transform="translate(104.273003 280.964542)"/><path d="m4.96875.140625c-.875 0-1.625-.14453125-2.25-.4375-.617188-.289063-1.09375-.71875-1.4375-1.28125-.34375-.570313-.527344-1.257813-.546875-2.0625-.011719-.394531-.015625-.820313-.015625-1.28125 0-.457031.003906-.894531.015625-1.3125.019531-.78125.203125-1.445313.546875-2 .34375-.550781.828125-.972656 1.453125-1.265625.632813-.289062 1.378906-.4375 2.234375-.4375.6875 0 1.289062.089844 1.8125.265625.53125.179687.972656.414063 1.328125.703125.363281.28125.632813.589844.8125.921875.1875.335937.285156.664063.296875.984375 0 .085938-.03125.152344-.09375.203125-.054688.054687-.125.078125-.21875.078125h-1.734375c-.09375 0-.167969-.015625-.21875-.046875-.054687-.039063-.101563-.097656-.140625-.171875-.0625-.15625-.167969-.320312-.3125-.5-.148438-.175781-.339844-.320312-.578125-.4375-.242187-.125-.558594-.1875-.953125-.1875-.585938 0-1.046875.15625-1.390625.46875-.34375.304688-.527344.804688-.546875 1.5-.03125.804688-.03125 1.621094 0 2.453125.019531.71875.207031 1.234375.5625 1.546875.351562.3125.820312.46875 1.40625.46875.382812 0 .726562-.066406 1.03125-.203125.300781-.132813.539062-.34375.71875-.625.175781-.28125.265625-.644531.265625-1.09375v-.359375h-1.53125c-.09375 0-.171875-.03125-.234375-.09375-.0625-.070312-.09375-.15625-.09375-.25v-.890625c0-.101563.03125-.1875.09375-.25.0625-.070313.140625-.109375.234375-.109375h3.453125c.101562 0 .1875.039062.25.109375.0625.0625.09375.148437.09375.25v1.515625c0 .804688-.179688 1.492188-.53125 2.0625-.355469.574219-.859375 1.011719-1.515625 1.3125-.648437.3046875-1.402344.453125-2.265625.453125zm0 0" transform="translate(123.4326 280.964542)"/><path d="m1.375 0c-.09375 0-.179688-.03125-.25-.09375-.0625-.070312-.09375-.15625-.09375-.25v-9.109375c0-.101563.03125-.1875.09375-.25.070312-.0625.15625-.09375.25-.09375h6.359375c.09375 0 .171875.03125.234375.09375.070312.0625.109375.148437.109375.25v1.125c0 .105469-.039063.1875-.109375.25-.0625.0625-.140625.09375-.234375.09375h-4.546875v2.1875h4.234375c.101563 0 .1875.039063.25.109375.0625.0625.09375.140625.09375.234375v1.046875c0 .09375-.03125.179688-.09375.25-.0625.0625-.148437.09375-.25.09375h-4.234375v2.25h4.65625c.101562 0 .1875.03125.25.09375s.09375.148438.09375.25v1.125c0 .09375-.03125.179688-.09375.25-.0625.0625-.148438.09375-.25.09375zm0 0" transform="translate(151.859327 280.964542)"/><path d="m1.375 0c-.09375 0-.179688-.03125-.25-.09375-.0625-.070312-.09375-.15625-.09375-.25v-9.109375c0-.101563.03125-.1875.09375-.25.070312-.0625.15625-.09375.25-.09375h1.28125c.144531 0 .25.03125.3125.09375s.101562.117187.125.15625l3.71875 5.828125v-5.734375c0-.101563.03125-.1875.09375-.25.070312-.0625.160156-.09375.265625-.09375h1.421875c.101562 0 .1875.03125.25.09375.070312.0625.109375.148437.109375.25v9.109375c0 .09375-.039063.179688-.109375.25-.0625.0625-.148438.09375-.25.09375h-1.28125c-.148438 0-.25-.03125-.3125-.09375-.0625-.070312-.105469-.125-.125-.15625l-3.71875-5.640625v5.546875c0 .09375-.03125.179688-.09375.25-.0625.0625-.148438.09375-.25.09375zm0 0" transform="translate(168.388394 280.964542)"/><path d="m1.375 0c-.09375 0-.179688-.03125-.25-.09375-.0625-.070312-.09375-.15625-.09375-.25v-9.109375c0-.101563.03125-.1875.09375-.25.070312-.0625.15625-.09375.25-.09375h1.53125c.101562 0 .1875.03125.25.09375.070312.0625.109375.148437.109375.25v3.5h3.796875v-3.5c0-.101563.03125-.1875.09375-.25s.140625-.09375.234375-.09375h1.546875c.101562 0 .1875.03125.25.09375s.09375.148437.09375.25v9.109375c0 .09375-.03125.179688-.09375.25-.0625.0625-.148438.09375-.25.09375h-1.546875c-.09375 0-.171875-.03125-.234375-.09375-.0625-.070312-.09375-.15625-.09375-.25v-3.625h-3.796875v3.625c0 .09375-.039063.179688-.109375.25-.0625.0625-.148438.09375-.25.09375zm0 0" transform="translate(186.064822 280.964542)"/><path d="m.46875 0c-.085938 0-.15625-.03125-.21875-.09375-.054688-.0625-.078125-.128906-.078125-.203125 0-.039063.003906-.082031.015625-.125l3.328125-9c.03125-.101563.085937-.191406.171875-.265625.082031-.070312.195312-.109375.34375-.109375h1.796875c.144531 0 .257813.039063.34375.109375.082031.074219.144531.164062.1875.265625l3.3125 9c.019531.042969.03125.085937.03125.125 0 .074219-.03125.140625-.09375.203125s-.136719.09375-.21875.09375h-1.46875c-.125 0-.226563-.03125-.296875-.09375-.0625-.070312-.105469-.132812-.125-.1875l-.59375-1.5625h-3.953125l-.59375 1.5625c-.023437.054688-.0625.117188-.125.1875-.0625.0625-.164063.09375-.296875.09375zm3.015625-3.65625h2.890625l-1.453125-4.015625zm0 0" transform="translate(204.077066 280.964542)"/><path d="m1.375 0c-.09375 0-.179688-.03125-.25-.09375-.0625-.070312-.09375-.15625-.09375-.25v-9.109375c0-.101563.03125-.1875.09375-.25.070312-.0625.15625-.09375.25-.09375h1.28125c.144531 0 .25.03125.3125.09375s.101562.117187.125.15625l3.71875 5.828125v-5.734375c0-.101563.03125-.1875.09375-.25.070312-.0625.160156-.09375.265625-.09375h1.421875c.101562 0 .1875.03125.25.09375.070312.0625.109375.148437.109375.25v9.109375c0 .09375-.039063.179688-.109375.25-.0625.0625-.148438.09375-.25.09375h-1.28125c-.148438 0-.25-.03125-.3125-.09375-.0625-.070312-.105469-.125-.125-.15625l-3.71875-5.640625v5.546875c0 .09375-.03125.179688-.09375.25-.0625.0625-.148438.09375-.25.09375zm0 0" transform="translate(221.627564 280.964542)"/><path d="m4.921875.140625c-.867187 0-1.605469-.14453125-2.21875-.4375-.617187-.289063-1.09375-.71875-1.4375-1.28125-.335937-.570313-.515625-1.265625-.546875-2.078125-.011719-.382812-.015625-.796875-.015625-1.234375s.003906-.851563.015625-1.25c.03125-.800781.21875-1.484375.5625-2.046875.34375-.570312.820312-1.003906 1.4375-1.296875.613281-.300781 1.347656-.453125 2.203125-.453125.632813 0 1.207031.078125 1.71875.234375.507813.15625.953125.386719 1.328125.6875.375.304687.664062.65625.875 1.0625.207031.398437.316406.839844.328125 1.328125.007813.085938-.015625.15625-.078125.21875-.0625.054688-.136719.078125-.21875.078125h-1.609375c-.117187 0-.203125-.023437-.265625-.078125-.0625-.050781-.117188-.140625-.15625-.265625-.136719-.5625-.371094-.941406-.703125-1.140625-.324219-.207031-.730469-.3125-1.21875-.3125-.5625 0-1.015625.164062-1.359375.484375-.335938.3125-.511719.835937-.53125 1.5625-.03125.773437-.03125 1.558594 0 2.359375.019531.730469.195312 1.25.53125 1.5625.34375.3125.796875.46875 1.359375.46875.488281 0 .898437-.097656 1.234375-.296875.332031-.207031.5625-.585937.6875-1.140625.039062-.125.09375-.210938.15625-.265625.0625-.050781.148438-.078125.265625-.078125h1.609375c.082031 0 .15625.03125.21875.09375.0625.054688.085938.121094.078125.203125-.011719.492187-.121094.9375-.328125 1.34375-.210938.398437-.5.746094-.875 1.046875-.375.292969-.820312.523438-1.328125.6875-.511719.15625-1.085937.234375-1.71875.234375zm0 0" transform="translate(239.303992 280.964542)"/><path d="m1.375 0c-.09375 0-.179688-.03125-.25-.09375-.0625-.070312-.09375-.15625-.09375-.25v-9.109375c0-.101563.03125-.1875.09375-.25.070312-.0625.15625-.09375.25-.09375h6.359375c.09375 0 .171875.03125.234375.09375.070312.0625.109375.148437.109375.25v1.125c0 .105469-.039063.1875-.109375.25-.0625.0625-.140625.09375-.234375.09375h-4.546875v2.1875h4.234375c.101563 0 .1875.039063.25.109375.0625.0625.09375.140625.09375.234375v1.046875c0 .09375-.03125.179688-.09375.25-.0625.0625-.148437.09375-.25.09375h-4.234375v2.25h4.65625c.101562 0 .1875.03125.25.09375s.09375.148438.09375.25v1.125c0 .09375-.03125.179688-.09375.25-.0625.0625-.148438.09375-.25.09375zm0 0" transform="translate(256.700579 280.964542)"/><path d="m1.375 0c-.09375 0-.179688-.03125-.25-.09375-.0625-.070312-.09375-.15625-.09375-.25v-9.109375c0-.101563.03125-.1875.09375-.25.070312-.0625.15625-.09375.25-.09375h3.71875c1.164062 0 2.082031.273437 2.75.8125.675781.53125 1.015625 1.304687 1.015625 2.3125 0 .679687-.167969 1.246094-.5 1.703125-.324219.460938-.757813.796875-1.296875 1.015625l1.984375 3.5c.03125.0625.046875.117187.046875.15625 0 .074219-.03125.140625-.09375.203125s-.132812.09375-.203125.09375h-1.578125c-.167969 0-.292969-.0390625-.375-.125-.085938-.09375-.148438-.175781-.1875-.25l-1.703125-3.203125h-1.6875v3.234375c0 .09375-.039063.179688-.109375.25-.0625.0625-.148438.09375-.25.09375zm1.890625-5.359375h1.796875c.507812 0 .882812-.113281 1.125-.34375.25-.238281.375-.566406.375-.984375 0-.425781-.121094-.757812-.359375-1-.242187-.238281-.621094-.359375-1.140625-.359375h-1.796875zm0 0" transform="translate(273.229645 280.964542)"/></g></svg>